<svg width="566" height="68" viewBox="0 0 566 68" fill="none" xmlns="http://www.w3.org/2000/svg">
<path d="M30.8042 67.9112C24.9452 67.9112 19.6928 66.5796 15.047 63.9164C10.4012 61.2533 6.73194 57.3916 4.03917 52.3316C1.34639 47.2715 0 41.161 0 34C0 26.7798 1.34639 20.6397 4.03917 15.5796C6.76153 10.49 10.4456 6.62837 15.0914 3.99478C19.7668 1.33159 25.0044 0 30.8042 0C34.651 0 38.2167 0.547433 41.5013 1.6423C44.7859 2.70757 47.6858 4.27589 50.2011 6.34726C52.7459 8.38903 54.8172 10.9043 56.4151 13.8929C58.0131 16.852 59.0339 20.2402 59.4778 24.0574H45.3629C45.0966 22.2524 44.564 20.6249 43.765 19.1749C42.9957 17.725 41.9748 16.497 40.7024 15.4909C39.4595 14.4848 38.0244 13.7154 36.3969 13.1828C34.799 12.6205 33.0383 12.3394 31.1149 12.3394C27.7415 12.3394 24.7676 13.1976 22.1932 14.9138C19.6484 16.6005 17.6658 19.0566 16.2454 22.282C14.8547 25.4778 14.1593 29.3838 14.1593 34C14.1593 38.705 14.8695 42.6701 16.2898 45.8956C17.7102 49.0914 19.6928 51.503 22.2376 53.1305C24.7824 54.758 27.7267 55.5718 31.0705 55.5718C32.9347 55.5718 34.6658 55.3203 36.2637 54.8172C37.8616 54.3142 39.282 53.5892 40.5248 52.6423C41.7676 51.6954 42.8033 50.5413 43.6319 49.1802C44.49 47.7894 45.067 46.2063 45.3629 44.4308H59.4778C59.1227 47.4787 58.2202 50.4082 56.7702 53.2193C55.3499 56.0305 53.4117 58.5457 50.9556 60.765C48.4996 62.9547 45.5849 64.7006 42.2115 66.0026C38.8381 67.275 35.0357 67.9112 30.8042 67.9112Z" fill="#AFAFAF"/>
<path d="M66.4021 67.0235V17.3995H79.6736V26.0992H80.2063C81.1236 23.0218 82.6475 20.6989 84.7781 19.1305C86.9086 17.5326 89.3499 16.7337 92.1018 16.7337C92.812 16.7337 93.5518 16.7781 94.3212 16.8668C95.1201 16.926 95.8303 17.0444 96.4517 17.2219V29.3838C95.8007 29.1767 94.8982 29.0139 93.7441 28.8956C92.6197 28.7476 91.5692 28.6736 90.5927 28.6736C88.6101 28.6736 86.8199 29.1175 85.2219 30.0052C83.624 30.8634 82.3664 32.0766 81.4491 33.6449C80.5614 35.1836 80.1175 36.9591 80.1175 38.9713V67.0235H66.4021Z" fill="#AFAFAF"/>
<path d="M120.598 68C115.597 68 111.262 66.9347 107.593 64.8042C103.953 62.644 101.142 59.6553 99.1593 55.8381C97.2063 51.9913 96.2298 47.5231 96.2298 42.4334C96.2298 37.2846 97.2063 32.8016 99.1593 28.9843C101.142 25.1375 103.953 22.1488 107.593 20.0183C111.262 17.8581 115.597 16.7781 120.598 16.7781C125.628 16.7781 129.963 17.8581 133.603 20.0183C137.272 22.1488 140.084 25.1375 142.037 28.9843C144.019 32.8016 145.01 37.2846 145.01 42.4334C145.01 47.5231 144.019 51.9913 142.037 55.8381C140.084 59.6553 137.272 62.644 133.603 64.8042C129.963 66.9347 125.628 68 120.598 68ZM120.687 57.2585C122.965 57.2585 124.874 56.6223 126.413 55.3499C127.951 54.0479 129.105 52.2724 129.875 50.0235C130.674 47.7746 131.073 45.215 131.073 42.3446C131.073 39.4447 130.674 36.8851 129.875 34.6658C129.105 32.4465 127.951 30.7006 126.413 29.4282C124.874 28.1558 122.965 27.5196 120.687 27.5196C118.379 27.5196 116.44 28.1558 114.872 29.4282C113.333 30.7006 112.164 32.4465 111.366 34.6658C110.596 36.8851 110.211 39.4447 110.211 42.3446C110.211 45.215 110.596 47.7746 111.366 50.0235C112.164 52.2724 113.333 54.0479 114.872 55.3499C116.44 56.6223 118.379 57.2585 120.687 57.2585Z" fill="#AFAFAF"/>
<path d="M159.569 67.0235L146.076 17.3995H160.013L167.692 50.7781H168.136L176.17 17.3995H189.796L197.919 50.5561H198.363L205.909 17.3995H219.802L206.308 67.0235H191.794L183.272 35.8198H182.65L174.128 67.0235H159.569Z" fill="#AFAFAF"/>
<path d="M241.018 67.8224C237.231 67.8224 233.813 66.8459 230.765 64.8929C227.717 62.9399 225.306 60.0696 223.53 56.282C221.755 52.4647 220.867 47.8042 220.867 42.3003C220.867 36.6188 221.784 31.8842 223.619 28.0966C225.453 24.309 227.895 21.483 230.943 19.6188C233.99 17.725 237.319 16.7781 240.93 16.7781C243.711 16.7781 246.034 17.2515 247.898 18.1984C249.762 19.1158 251.272 20.2698 252.426 21.6606C253.58 23.0513 254.453 24.4273 255.044 25.7885H255.444V0.887728H269.204V67.0235H255.666V59.0783H255.044C254.423 60.4395 253.52 61.8007 252.337 63.1619C251.153 64.4935 249.629 65.6031 247.765 66.4909C245.93 67.3786 243.681 67.8224 241.018 67.8224ZM245.324 56.9034C247.543 56.9034 249.422 56.2968 250.961 55.0835C252.529 53.8407 253.713 52.1245 254.512 49.9347C255.34 47.745 255.755 45.1854 255.755 42.2559C255.755 39.2968 255.355 36.7372 254.556 34.577C253.757 32.3873 252.574 30.7006 251.005 29.517C249.437 28.3037 247.543 27.6971 245.324 27.6971C243.075 27.6971 241.181 28.3185 239.642 29.5614C238.104 30.8042 236.935 32.5204 236.136 34.7102C235.337 36.8703 234.937 39.3855 234.937 42.2559C234.937 45.1262 235.337 47.671 236.136 49.8903C236.935 52.0801 238.104 53.7963 239.642 55.0392C241.211 56.282 243.104 56.9034 245.324 56.9034Z" fill="#AFAFAF"/>
<path d="M292.329 67.0235L273.42 0.887728H288.689L299.653 46.8277H300.23L312.259 0.887728H325.353L337.381 46.9608H337.958L348.922 0.887728H364.191L345.238 67.0235H331.611L319.094 23.7911H318.561L306 67.0235H292.329Z" fill="white"/>
<path d="M377.285 67.9556C374.148 67.9556 371.322 67.4082 368.807 66.3133C366.321 65.1889 364.368 63.5318 362.948 61.342C361.527 59.1523 360.817 56.4299 360.817 53.1749C360.817 50.3934 361.32 48.0853 362.326 46.2506C363.333 44.3864 364.709 42.8773 366.454 41.7232C368.2 40.5692 370.183 39.6963 372.402 39.1044C374.621 38.5126 376.974 38.0983 379.46 37.8616C382.33 37.5953 384.638 37.329 386.384 37.0627C388.13 36.7963 389.402 36.3969 390.201 35.8642C391.03 35.302 391.444 34.503 391.444 33.4674V33.2454C391.444 31.2037 390.793 29.6205 389.491 28.4961C388.219 27.3716 386.413 26.8094 384.076 26.8094C381.62 26.8094 379.652 27.3568 378.172 28.4517C376.722 29.517 375.761 30.8782 375.287 32.5352L362.548 31.5144C363.199 28.4961 364.472 25.8921 366.366 23.7023C368.259 21.483 370.701 19.7815 373.689 18.5979C376.708 17.3847 380.199 16.7781 384.165 16.7781C386.917 16.7781 389.55 17.1036 392.065 17.7546C394.581 18.4056 396.815 19.4117 398.768 20.7728C400.75 22.1044 402.319 23.8355 403.473 25.9661C404.627 28.0966 405.204 30.6266 405.204 33.5561V67.0235H392.11V60.0992H391.755C390.956 61.6675 389.89 63.0435 388.559 64.2271C387.227 65.3812 385.629 66.2985 383.765 66.9791C381.901 67.6301 379.741 67.9556 377.285 67.9556ZM381.235 58.4569C383.247 58.4569 385.023 58.0574 386.561 57.2585C388.13 56.4299 389.343 55.3351 390.201 53.9739C391.089 52.5831 391.533 51.0296 391.533 49.3133V44.0313C391.118 44.2976 390.527 44.5492 389.757 44.7859C389.017 45.0226 388.189 45.2298 387.272 45.4073C386.354 45.5849 385.437 45.7476 384.52 45.8956C383.602 46.0139 382.774 46.1323 382.034 46.2506C380.406 46.4874 378.986 46.8721 377.773 47.4047C376.56 47.9077 375.613 48.6031 374.932 49.4909C374.281 50.349 373.956 51.4291 373.956 52.7311C373.956 54.5953 374.636 56.0157 375.997 56.9922C377.359 57.9687 379.104 58.4569 381.235 58.4569Z" fill="white"/>
<path d="M426.953 0.887728V67.0235H413.238V0.887728H426.953Z" fill="white"/>
<path d="M435.076 67.0235V17.3995H448.347V26.0992H448.88C449.797 23.0218 451.321 20.6989 453.452 19.1305C455.582 17.5326 458.024 16.7337 460.776 16.7337C461.486 16.7337 462.225 16.7781 462.995 16.8668C463.794 16.926 464.504 17.0444 465.125 17.2219V29.3838C464.474 29.1767 463.572 29.0139 462.418 28.8956C461.293 28.7476 460.243 28.6736 459.266 28.6736C457.284 28.6736 455.494 29.1175 453.896 30.0052C452.298 30.8634 451.04 32.0766 450.123 33.6449C449.235 35.1836 448.791 36.9591 448.791 38.9713V67.0235H435.076Z" fill="white"/>
<path d="M501.034 45.9399V17.3995H514.749V67.0235H501.567V58.0131H501.034C499.91 60.8834 498.06 63.2211 495.486 65.0261C492.911 66.8016 489.76 67.6745 486.031 67.6449C482.717 67.6449 479.788 66.9051 477.243 65.4256C474.728 63.9164 472.76 61.7711 471.339 58.9896C469.949 56.208 469.253 52.879 469.253 49.0026V17.3995H482.969V46.6057C482.969 49.5057 483.753 51.8137 485.321 53.53C486.89 55.2167 488.976 56.0453 491.58 56.0157C493.237 56.0157 494.776 55.6458 496.196 54.906C497.616 54.1366 498.77 52.9974 499.658 51.4882C500.575 49.9791 501.034 48.1297 501.034 45.9399Z" fill="white"/>
<path d="M564.063 31.5587L551.501 32.3133C551.176 30.745 550.303 29.3986 548.883 28.2741C547.462 27.1201 545.554 26.5431 543.157 26.5431C541.026 26.5431 539.236 26.9869 537.786 27.8747C536.366 28.7624 535.655 29.946 535.655 31.4256C535.655 32.6092 536.114 33.6301 537.031 34.4882C537.978 35.3168 539.591 35.9678 541.87 36.4412L550.88 38.2167C555.703 39.1932 559.299 40.7763 561.666 42.9661C564.033 45.1558 565.217 48.0409 565.217 51.6214C565.217 54.906 564.27 57.7763 562.376 60.2324C560.482 62.6588 557.878 64.5674 554.564 65.9582C551.25 67.3194 547.447 68 543.157 68C536.588 68 531.35 66.624 527.444 63.8721C523.567 61.1201 521.304 57.3916 520.653 52.6867L534.102 51.9765C534.546 53.9887 535.552 55.5126 537.12 56.5483C538.688 57.584 540.701 58.1018 543.157 58.1018C545.554 58.1018 547.492 57.6284 548.971 56.6815C550.48 55.7345 551.235 54.5361 551.235 53.0862C551.235 50.6301 549.104 48.973 544.843 48.1149L536.277 46.3394C531.453 45.3629 527.858 43.691 525.491 41.3238C523.124 38.9565 521.94 35.9234 521.94 32.2245C521.94 29.0287 522.813 26.2768 524.559 23.9687C526.305 21.6606 528.746 19.8851 531.883 18.6423C535.049 17.3995 538.748 16.7781 542.979 16.7781C549.252 16.7781 554.179 18.1097 557.76 20.7728C561.37 23.4064 563.471 27.0017 564.063 31.5587Z" fill="white"/>
</svg>
