<svg width="469" height="185" viewBox="0 0 469 185" fill="none" xmlns="http://www.w3.org/2000/svg">
<path d="M25.542 184.926C20.6839 184.926 16.3287 183.822 12.4766 181.614C8.62442 179.406 5.58195 176.204 3.34917 172.008C1.11639 167.813 0 162.746 0 156.808C0 150.821 1.11639 145.73 3.34917 141.534C5.60648 137.314 8.66122 134.112 12.5134 131.929C16.3901 129.72 20.733 128.616 25.542 128.616C28.7317 128.616 31.6883 129.07 34.4118 129.978C37.1353 130.861 39.5398 132.162 41.6254 133.879C43.7355 135.572 45.453 137.658 46.778 140.136C48.1029 142.589 48.9494 145.399 49.3174 148.564H37.6137C37.3929 147.067 36.9513 145.718 36.2888 144.516C35.6509 143.313 34.8044 142.295 33.7493 141.461C32.7188 140.627 31.5288 139.989 30.1793 139.547C28.8544 139.081 27.3945 138.848 25.7996 138.848C23.0025 138.848 20.5367 139.559 18.402 140.982C16.2919 142.381 14.648 144.417 13.4703 147.092C12.3171 149.742 11.7405 152.981 11.7405 156.808C11.7405 160.709 12.3294 163.997 13.5071 166.672C14.6848 169.322 16.3287 171.321 18.4388 172.671C20.5489 174.02 22.9903 174.695 25.7628 174.695C27.3086 174.695 28.744 174.486 30.0689 174.069C31.3939 173.652 32.5716 173.051 33.6021 172.266C34.6326 171.481 35.4914 170.524 36.1784 169.395C36.8899 168.242 37.3684 166.929 37.6137 165.457H49.3174C49.023 167.984 48.2747 170.413 47.0724 172.744C45.8947 175.075 44.2875 177.161 42.2511 179.001C40.2146 180.817 37.7978 182.264 35.0007 183.344C32.2035 184.399 29.0507 184.926 25.542 184.926Z" fill="black"/>
<path d="M55.0589 184.19V143.043H66.0633V150.257H66.5049C67.2655 147.705 68.5291 145.779 70.2957 144.479C72.0623 143.154 74.0866 142.491 76.3684 142.491C76.9573 142.491 77.5707 142.528 78.2086 142.602C78.8711 142.651 79.46 142.749 79.9752 142.896V152.981C79.4354 152.809 78.6871 152.674 77.7302 152.576C76.7978 152.453 75.9268 152.392 75.1171 152.392C73.4732 152.392 71.9887 152.76 70.6638 153.496C69.3388 154.207 68.2961 155.213 67.5354 156.514C66.7994 157.79 66.4313 159.262 66.4313 160.93V184.19H55.0589Z" fill="black"/>
<path d="M99.9966 185C95.85 185 92.2555 184.117 89.213 182.35C86.1951 180.559 83.8642 178.081 82.2203 174.916C80.6009 171.726 79.7912 168.021 79.7912 163.801C79.7912 159.532 80.6009 155.814 82.2203 152.649C83.8642 149.46 86.1951 146.981 89.213 145.215C92.2555 143.424 95.85 142.528 99.9966 142.528C104.168 142.528 107.762 143.424 110.78 145.215C113.823 146.981 116.154 149.46 117.773 152.649C119.417 155.814 120.239 159.532 120.239 163.801C120.239 168.021 119.417 171.726 117.773 174.916C116.154 178.081 113.823 180.559 110.78 182.35C107.762 184.117 104.168 185 99.9966 185ZM100.07 176.093C101.959 176.093 103.542 175.566 104.818 174.511C106.094 173.431 107.051 171.959 107.689 170.094C108.351 168.23 108.682 166.107 108.682 163.727C108.682 161.323 108.351 159.2 107.689 157.36C107.051 155.52 106.094 154.072 104.818 153.017C103.542 151.962 101.959 151.435 100.07 151.435C98.1564 151.435 96.5493 151.962 95.2489 153.017C93.973 154.072 93.0038 155.52 92.3414 157.36C91.7034 159.2 91.3845 161.323 91.3845 163.727C91.3845 166.107 91.7034 168.23 92.3414 170.094C93.0038 171.959 93.973 173.431 95.2489 174.511C96.5493 175.566 98.1564 176.093 100.07 176.093Z" fill="black"/>
<path d="M132.311 184.19L121.122 143.043H132.679L139.046 170.72H139.414L146.075 143.043H157.374L164.109 170.536H164.477L170.734 143.043H182.254L171.065 184.19H159.03L151.964 158.317H151.449L144.382 184.19H132.311Z" fill="black"/>
<path d="M199.846 184.853C196.705 184.853 193.871 184.043 191.344 182.424C188.817 180.804 186.817 178.424 185.345 175.284C183.873 172.119 183.137 168.254 183.137 163.691C183.137 158.98 183.898 155.054 185.419 151.913C186.94 148.773 188.964 146.429 191.491 144.884C194.019 143.313 196.779 142.528 199.772 142.528C202.079 142.528 204.005 142.921 205.551 143.706C207.096 144.467 208.348 145.423 209.305 146.577C210.262 147.73 210.985 148.871 211.476 149.999H211.807V129.352H223.217V184.19H211.991V177.602H211.476C210.961 178.731 210.212 179.86 209.231 180.988C208.25 182.093 206.986 183.013 205.44 183.749C203.919 184.485 202.054 184.853 199.846 184.853ZM203.416 175.799C205.256 175.799 206.814 175.296 208.09 174.29C209.391 173.26 210.372 171.836 211.034 170.021C211.721 168.205 212.065 166.083 212.065 163.654C212.065 161.2 211.734 159.078 211.071 157.287C210.409 155.471 209.427 154.072 208.127 153.091C206.827 152.085 205.256 151.582 203.416 151.582C201.551 151.582 199.981 152.097 198.705 153.128C197.429 154.158 196.46 155.581 195.798 157.397C195.135 159.188 194.804 161.274 194.804 163.654C194.804 166.034 195.135 168.144 195.798 169.984C196.46 171.8 197.429 173.223 198.705 174.253C200.005 175.284 201.576 175.799 203.416 175.799Z" fill="black"/>
<path d="M242.392 184.19L226.713 129.352H239.374L248.464 167.445H248.943L258.917 129.352H269.774L279.748 167.555H280.226L289.317 129.352H301.977L286.262 184.19H274.963L264.584 148.343H264.143L253.727 184.19H242.392Z" fill="#613DFF"/>
<path d="M312.834 184.963C310.234 184.963 307.89 184.509 305.805 183.602C303.744 182.669 302.124 181.295 300.947 179.479C299.769 177.664 299.18 175.406 299.18 172.708C299.18 170.401 299.597 168.487 300.432 166.966C301.266 165.42 302.407 164.169 303.854 163.212C305.302 162.255 306.946 161.531 308.786 161.041C310.626 160.55 312.577 160.206 314.638 160.01C317.018 159.789 318.932 159.568 320.379 159.348C321.827 159.127 322.882 158.796 323.544 158.354C324.231 157.888 324.575 157.225 324.575 156.366V156.182C324.575 154.489 324.035 153.177 322.956 152.244C321.901 151.312 320.404 150.846 318.466 150.846C316.429 150.846 314.797 151.3 313.571 152.208C312.368 153.091 311.571 154.22 311.178 155.594L300.616 154.747C301.155 152.244 302.21 150.085 303.781 148.27C305.351 146.429 307.375 145.019 309.853 144.037C312.356 143.031 315.251 142.528 318.539 142.528C320.821 142.528 323.005 142.798 325.09 143.338C327.176 143.878 329.028 144.712 330.648 145.841C332.292 146.945 333.592 148.38 334.549 150.147C335.506 151.913 335.984 154.011 335.984 156.44V184.19H325.127V178.449H324.833C324.17 179.749 323.287 180.89 322.183 181.872C321.079 182.829 319.754 183.589 318.208 184.154C316.662 184.693 314.871 184.963 312.834 184.963ZM316.11 177.087C317.778 177.087 319.251 176.756 320.527 176.093C321.827 175.406 322.833 174.499 323.544 173.37C324.281 172.217 324.649 170.929 324.649 169.506V165.126C324.305 165.347 323.814 165.555 323.176 165.752C322.563 165.948 321.876 166.12 321.115 166.267C320.355 166.414 319.594 166.549 318.834 166.672C318.073 166.77 317.386 166.868 316.773 166.966C315.423 167.162 314.245 167.481 313.239 167.923C312.233 168.34 311.448 168.917 310.884 169.653C310.344 170.364 310.074 171.26 310.074 172.339C310.074 173.885 310.639 175.063 311.767 175.873C312.896 176.682 314.343 177.087 316.11 177.087Z" fill="#613DFF"/>
<path d="M354.018 129.352V184.19H342.646V129.352H354.018Z" fill="#613DFF"/>
<path d="M360.753 184.19V143.043H371.758V150.257H372.199C372.96 147.705 374.224 145.779 375.99 144.479C377.757 143.154 379.781 142.491 382.063 142.491C382.652 142.491 383.265 142.528 383.903 142.602C384.566 142.651 385.154 142.749 385.67 142.896V152.981C385.13 152.809 384.382 152.674 383.425 152.576C382.492 152.453 381.621 152.392 380.812 152.392C379.168 152.392 377.683 152.76 376.358 153.496C375.033 154.207 373.991 155.213 373.23 156.514C372.494 157.79 372.126 159.262 372.126 160.93V184.19H360.753Z" fill="#613DFF"/>
<path d="M415.444 166.708V143.043H426.817V184.19H415.886V176.719H415.444C414.512 179.099 412.978 181.038 410.844 182.534C408.709 184.006 406.096 184.73 403.004 184.706C400.256 184.706 397.827 184.092 395.717 182.865C393.632 181.614 392 179.835 390.822 177.529C389.669 175.222 389.092 172.462 389.092 169.248V143.043H400.465V167.261C400.465 169.665 401.115 171.579 402.416 173.002C403.716 174.4 405.446 175.088 407.605 175.063C408.979 175.063 410.255 174.756 411.433 174.143C412.61 173.505 413.567 172.56 414.303 171.309C415.064 170.058 415.444 168.524 415.444 166.708Z" fill="#613DFF"/>
<path d="M467.706 154.784L457.29 155.41C457.02 154.109 456.297 152.993 455.119 152.06C453.941 151.104 452.359 150.625 450.371 150.625C448.605 150.625 447.12 150.993 445.918 151.729C444.74 152.465 444.151 153.447 444.151 154.674C444.151 155.655 444.532 156.501 445.292 157.213C446.077 157.9 447.415 158.44 449.304 158.832L456.775 160.305C460.775 161.114 463.756 162.427 465.719 164.243C467.681 166.058 468.663 168.451 468.663 171.419C468.663 174.143 467.878 176.523 466.307 178.559C464.737 180.571 462.578 182.154 459.83 183.307C457.082 184.436 453.929 185 450.371 185C444.924 185 440.581 183.859 437.343 181.577C434.128 179.295 432.251 176.204 431.712 172.303L442.863 171.714C443.231 173.382 444.065 174.646 445.366 175.505C446.666 176.363 448.335 176.793 450.371 176.793C452.359 176.793 453.966 176.4 455.193 175.615C456.444 174.83 457.07 173.836 457.07 172.634C457.07 170.597 455.303 169.223 451.77 168.512L444.667 167.04C440.667 166.23 437.686 164.844 435.723 162.881C433.76 160.918 432.779 158.403 432.779 155.336C432.779 152.686 433.503 150.404 434.95 148.49C436.398 146.577 438.422 145.104 441.023 144.074C443.648 143.043 446.715 142.528 450.224 142.528C455.426 142.528 459.511 143.632 462.48 145.841C465.473 148.024 467.215 151.005 467.706 154.784Z" fill="#613DFF"/>
<g clip-path="url(#clip0_2066_1835)">
<path d="M229.435 0.0323619C232.282 -0.150962 235.007 0.454916 237.558 1.66147L274.419 22.5629C278.642 25.2582 281.005 29.0001 281.751 33.8809C282.616 39.5366 282.776 46.148 283.235 51.9376C283.769 58.6621 284.553 65.7883 284.843 72.4737C285.131 79.1176 283.198 83.6279 277.486 87.2904C269.18 92.6172 260.044 97.4915 251.489 102.524C247.198 105.049 242.721 108.098 238.357 110.402C233.706 112.857 228.075 113.021 223.339 110.69C212.779 104.337 202.041 98.2625 191.442 91.9723C181.439 86.0319 175.607 84.1869 176.355 71.1788C177.059 58.9091 178.467 46.6589 179.157 34.3841C179.943 28.1888 183.002 24.6718 188.273 21.554C199.694 14.7944 211.534 8.66807 222.967 1.9215C224.954 0.865768 227.158 0.179281 229.435 0.0323619ZM271.227 85.9344C274.469 84.1193 278.287 82.3082 279.735 78.6872C281.183 75.0663 280.298 70.3207 280.032 66.6282C279.323 56.7521 278.542 46.8422 277.633 36.9818C277.084 31.0062 276.38 28.7556 271.001 25.5013C259.44 18.509 247.275 12.393 235.689 5.43195C232.458 3.86525 228.274 3.84055 225.102 5.56197L188.585 26.2801C184.409 29.0768 183.711 32.3831 183.289 36.9818C182.529 45.2898 182.019 53.6239 181.421 61.945C181.134 65.9339 180.391 70.634 180.483 74.5644C180.551 77.4521 181.935 80.7324 184.408 82.4135L193.309 74.5605C193.428 74.4526 193.428 74.3473 193.412 74.2003C193.352 73.6569 192.823 72.5803 192.671 71.9173C190.902 64.1917 194.521 56.6052 200.783 51.9441C206.551 47.6496 214.941 45.6448 218.587 39.2584C221.839 33.5649 221.131 26.5623 225.082 21.1432C229.544 15.0207 238.604 12.9898 245.43 16.4808C247.444 17.5118 248.54 18.132 250.711 19.0057C254.718 20.6205 257.947 24.0113 257.615 28.5268C257.536 29.589 256.554 31.2806 256.556 31.6303C256.558 32.5794 257.224 34.5089 257.35 35.6816C257.623 38.2442 257.169 41.063 257.423 43.4358C257.488 44.0443 258.045 45.2599 258.218 46.0153C259.267 50.5698 258.992 55.9681 257.316 60.351C256.49 62.5105 255.049 64.033 256.816 66.3642C258.349 68.386 263.558 69.5822 265.979 70.6977C268.014 71.6351 268.677 72.6609 266.957 74.489C268.03 74.9531 271.227 76.8618 271.227 78.067V85.933V85.9344ZM239.971 19.7793C238.088 20.0107 238.124 23.2949 240.709 22.719C242.402 22.3406 241.964 19.5349 239.971 19.7793ZM250.808 25.3453C251.524 24.1517 252.681 23.2 253.615 22.1612V21.8999C251.653 21.2459 249.382 21.2277 247.541 22.2249L249.881 24.3676L250.534 25.2634L250.808 25.3453ZM235.641 32.0698C235.877 32.3493 236.266 32.4247 236.584 32.2232C236.975 31.9748 238.043 30.4094 238.598 29.8946C239.001 29.5214 240.686 28.4735 240.641 28.0327C240.015 26.1995 237.789 28.5515 237.062 29.3095C236.551 29.8439 235.055 31.3794 235.639 32.0698H235.641ZM242.772 30.9061C243.199 30.481 242.996 29.2653 241.971 29.5383C240.799 29.8504 239.133 32.3116 238.153 33.0995C237.822 33.5467 238.043 34.3398 238.632 34.427C239.321 34.5297 240.835 32.3649 241.4 31.8435C241.648 31.6147 242.002 31.3573 242.279 31.1375C242.423 31.0231 242.677 30.9997 242.772 30.9061ZM254.679 33.4076C253.298 33.8172 251.945 33.9758 250.544 33.5389C251.73 38.8488 252.068 44.42 251.883 49.8612C251.86 50.5295 251.059 53.7591 252.512 53.0752C253.753 52.4915 254.869 46.447 255.06 45.0272C255.441 42.1864 255.591 38.7968 255.196 35.9599C255.077 35.103 254.756 34.2722 254.677 33.4089L254.679 33.4076ZM246.807 34.059C245.096 34.5102 243.379 34.8703 241.604 34.5804C241.703 34.7754 241.74 34.9353 241.745 35.1564C241.886 40.8693 241.121 46.1961 240.931 51.8011C240.899 52.7385 240.618 54.7616 242.146 54.2831C242.814 54.0738 243.424 52.4954 243.667 51.8648C245.765 46.3976 246.123 39.8304 246.808 34.059H246.807ZM251.745 48.7496V45.1091H251.612V48.7496H251.745ZM224.524 63.1801C223.271 60.4823 222.253 57.6726 221.789 54.7304C220.295 56.834 220.131 59.645 221.052 62.0022C219.915 62.5808 218.817 63.2464 217.729 63.9069C215.494 65.263 210.432 67.8555 209.335 70.0294C209.012 70.6704 208.911 71.3283 208.778 72.0213C208.891 72.1188 211.338 71.0474 211.521 70.8602C211.813 70.5599 212.008 69.5133 212.515 68.9685C212.848 68.6083 213.427 68.3119 213.865 68.074C216.902 66.4189 220.825 64.713 224.032 63.2854C224.188 63.2165 224.352 63.1775 224.524 63.1814V63.1801ZM237.598 58.2421L237.331 58.3084C237.921 63.0436 236.992 68.1598 232.398 70.6613C228.41 72.8339 222.393 72.5517 217.91 72.4217C217.683 72.4152 217.52 72.3762 217.318 72.2839V72.5413L230.586 77.2206L243.87 72.5426L237.066 70.4624C239.724 67.4226 240.255 63.5546 238.495 59.905C238.227 59.3472 237.772 58.8415 237.597 58.2434L237.598 58.2421ZM256.415 74.3629H252.946V74.4929H256.415V74.3629ZM248.276 74.6229L232.397 80.3436V95.6856L248.276 89.1198V74.6229ZM251.879 74.6229V80.3436L264.69 76.7669L262.064 75.0364L261.275 74.7646L251.88 74.6229H251.879ZM209.179 80.4737V74.7529L203.434 77.2817L203.037 77.677L209.179 80.475V80.4737ZM228.659 95.6856L228.733 80.4737L212.915 74.7542L212.796 89.3018L228.659 95.6869V95.6856ZM251.745 80.2136V74.7529H251.612V80.2136H251.745ZM267.624 79.5635L251.869 84.3039L251.88 97.3758L267.624 88.0796V79.5635ZM209.027 84.0023L199.84 80.4737C198.102 83.5641 198.285 86.9849 197.438 90.2977L209.176 97.3758L209.025 84.0023H209.027ZM191.43 86.9745C191.422 85.5495 191.807 84.1622 192.231 82.8153L189.165 85.6119L189.334 85.8329L191.432 86.9745H191.43ZM251.745 97.1158V84.6342H251.612V97.1158H251.745ZM209.446 94.2554V89.3148H209.312V94.2554H209.446ZM232.397 107.907C233.663 107.765 234.959 107.191 236.089 106.629C239.609 104.882 244.189 102.197 247.515 100.08C247.782 99.9111 248.062 99.759 248.276 99.5211V93.0853L232.397 99.5861V107.907ZM228.661 107.907V99.6511L212.782 93.2153V99.5211L224.94 106.656C226.14 107.156 227.328 107.803 228.661 107.907Z" fill="#613DFF"/>
<path d="M251.745 84.6343H251.612V97.1159H251.745V84.6343Z" fill="#613DFF"/>
<path d="M251.745 74.7531H251.612V80.2137H251.745V74.7531Z" fill="#613DFF"/>
<path d="M209.446 89.3149H209.312V94.2555H209.446V89.3149Z" fill="#613DFF"/>
<path d="M251.745 45.1093H251.612V48.7497H251.745V45.1093Z" fill="#613DFF"/>
<path d="M256.415 74.363H252.946V74.493H256.415V74.363Z" fill="#613DFF"/>
</g>
<defs>
<clipPath id="clip0_2066_1835">
<rect width="108.58" height="112.342" fill="white" transform="translate(176.291)"/>
</clipPath>
</defs>
</svg>
