<svg width="650" height="125" viewBox="0 0 650 125" fill="none" xmlns="http://www.w3.org/2000/svg">
<path d="M161.169 92.9881C155.815 92.9881 151.016 91.7713 146.77 89.3377C142.525 86.904 139.172 83.3753 136.711 78.7514C134.251 74.1275 133.02 68.5437 133.02 61.9999C133.02 55.402 134.251 49.7912 136.711 45.1673C139.199 40.5163 142.566 36.9876 146.811 34.581C151.083 32.1474 155.869 30.9305 161.169 30.9305C164.684 30.9305 167.943 31.4308 170.944 32.4313C173.946 33.4047 176.596 34.8379 178.894 36.7307C181.22 38.5965 183.112 40.8949 184.573 43.626C186.033 46.33 186.966 49.4261 187.371 52.9143H174.473C174.23 51.2649 173.743 49.7777 173.013 48.4527C172.31 47.1277 171.377 46.0055 170.214 45.0862C169.079 44.1668 167.767 43.4637 166.28 42.977C164.82 42.4632 163.211 42.2064 161.453 42.2064C158.371 42.2064 155.653 42.9905 153.301 44.5589C150.975 46.1002 149.163 48.3445 147.865 51.2919C146.595 54.2123 145.959 57.7816 145.959 61.9999C145.959 66.2993 146.608 69.9227 147.906 72.8701C149.204 75.7905 151.016 77.9943 153.341 79.4815C155.667 80.9687 158.357 81.7123 161.413 81.7123C163.116 81.7123 164.698 81.4825 166.158 81.0228C167.618 80.5631 168.916 79.9006 170.052 79.0353C171.188 78.17 172.134 77.1154 172.891 75.8716C173.675 74.6007 174.203 73.154 174.473 71.5316H187.371C187.047 74.3168 186.222 76.9938 184.897 79.5626C183.599 82.1314 181.828 84.4299 179.584 86.4579C177.339 88.4589 174.676 90.0542 171.593 91.244C168.511 92.4068 165.036 92.9881 161.169 92.9881Z" fill="white"/>
<path d="M193.699 92.1769V46.8303H205.826V54.7801H206.313C207.151 51.9679 208.544 49.8453 210.491 48.4121C212.438 46.9519 214.669 46.2219 217.183 46.2219C217.832 46.2219 218.508 46.2624 219.211 46.3435C219.941 46.3976 220.59 46.5058 221.158 46.668V57.7816C220.563 57.5923 219.739 57.4436 218.684 57.3354C217.657 57.2002 216.697 57.1326 215.804 57.1326C213.993 57.1326 212.357 57.5382 210.896 58.3494C209.436 59.1336 208.287 60.2423 207.449 61.6754C206.638 63.0815 206.232 64.7039 206.232 66.5427V92.1769H193.699Z" fill="white"/>
<path d="M243.223 93.0692C238.653 93.0692 234.692 92.0958 231.339 90.1489C228.013 88.1749 225.444 85.4439 223.632 81.9557C221.848 78.4404 220.955 74.3573 220.955 69.7064C220.955 65.0014 221.848 60.9048 223.632 57.4166C225.444 53.9013 228.013 51.1702 231.339 49.2233C234.692 47.2494 238.653 46.2624 243.223 46.2624C247.82 46.2624 251.781 47.2494 255.107 49.2233C258.46 51.1702 261.029 53.9013 262.814 57.4166C264.626 60.9048 265.531 65.0014 265.531 69.7064C265.531 74.3573 264.626 78.4404 262.814 81.9557C261.029 85.4439 258.46 88.1749 255.107 90.1489C251.781 92.0958 247.82 93.0692 243.223 93.0692ZM243.304 83.2536C245.386 83.2536 247.13 82.6722 248.537 81.5095C249.943 80.3197 250.997 78.6973 251.7 76.6422C252.43 74.5872 252.795 72.2482 252.795 69.6253C252.795 66.9753 252.43 64.6363 251.7 62.6083C250.997 60.5803 249.943 58.9849 248.537 57.8222C247.13 56.6594 245.386 56.0781 243.304 56.0781C241.195 56.0781 239.424 56.6594 237.991 57.8222C236.585 58.9849 235.517 60.5803 234.787 62.6083C234.084 64.6363 233.732 66.9753 233.732 69.6253C233.732 72.2482 234.084 74.5872 234.787 76.6422C235.517 78.6973 236.585 80.3197 237.991 81.5095C239.424 82.6722 241.195 83.2536 243.304 83.2536Z" fill="white"/>
<path d="M278.835 92.1769L266.505 46.8303H279.241L286.258 77.3318H286.663L294.005 46.8303H306.457L313.88 77.129H314.285L321.18 46.8303H333.876L321.546 92.1769H308.282L300.495 63.6629H299.927L292.139 92.1769H278.835Z" fill="white"/>
<path d="M353.264 92.907C349.803 92.907 346.679 92.0147 343.894 90.23C341.109 88.4453 338.905 85.8224 337.283 82.3613C335.661 78.8731 334.849 74.6142 334.849 69.5847C334.849 64.393 335.688 60.0665 337.364 56.6053C339.041 53.1442 341.271 50.5618 344.057 48.8583C346.842 47.1277 349.884 46.2624 353.183 46.2624C355.724 46.2624 357.847 46.6951 359.551 47.5603C361.254 48.3986 362.633 49.4532 363.688 50.7241C364.742 51.995 365.54 53.2523 366.081 54.4962H366.446V31.7418H379.02V92.1769H366.649V84.9166H366.081C365.513 86.1604 364.688 87.4043 363.607 88.6481C362.525 89.865 361.133 90.879 359.429 91.6902C357.752 92.5014 355.697 92.907 353.264 92.907ZM357.198 82.9291C359.226 82.9291 360.943 82.3748 362.349 81.2661C363.782 80.1304 364.864 78.5621 365.594 76.5611C366.351 74.5601 366.73 72.2211 366.73 69.5441C366.73 66.8401 366.365 64.5011 365.635 62.5272C364.905 60.5262 363.823 58.9849 362.39 57.9033C360.957 56.7946 359.226 56.2403 357.198 56.2403C355.143 56.2403 353.413 56.8081 352.006 57.9438C350.6 59.0795 349.532 60.6479 348.802 62.6489C348.072 64.6228 347.707 66.9212 347.707 69.5441C347.707 72.1671 348.072 74.4925 348.802 76.5206C349.532 78.5215 350.6 80.0899 352.006 81.2256C353.44 82.3613 355.17 82.9291 357.198 82.9291Z" fill="white"/>
<path d="M400.152 92.1769L382.873 31.7418H396.826L406.844 73.7219H407.372L418.363 31.7418H430.329L441.321 73.8436H441.848L451.866 31.7418H465.819L448.5 92.1769H436.048L424.61 52.671H424.123L412.644 92.1769H400.152Z" fill="#8164FF"/>
<path d="M477.785 93.0287C474.918 93.0287 472.336 92.5284 470.038 91.5279C467.766 90.5004 465.981 88.9861 464.684 86.9852C463.386 84.9842 462.737 82.4965 462.737 79.522C462.737 76.9802 463.196 74.8711 464.116 73.1946C465.035 71.491 466.292 70.112 467.888 69.0574C469.483 68.0028 471.295 67.2052 473.323 66.6643C475.351 66.1235 477.501 65.745 479.772 65.5287C482.395 65.2853 484.504 65.0419 486.1 64.7986C487.695 64.5552 488.858 64.1902 489.588 63.7034C490.345 63.1897 490.723 62.4596 490.723 61.5132V61.3104C490.723 59.4446 490.129 57.9979 488.939 56.9704C487.776 55.9429 486.127 55.4291 483.99 55.4291C481.746 55.4291 479.948 55.9293 478.596 56.9298C477.271 57.9033 476.392 59.1471 475.959 60.6614L464.319 59.7285C464.913 56.9704 466.076 54.5908 467.807 52.5899C469.537 50.5618 471.768 49.007 474.499 47.9254C477.257 46.8167 480.448 46.2624 484.071 46.2624C486.586 46.2624 488.993 46.5599 491.291 47.1547C493.59 47.7496 495.631 48.669 497.416 49.9129C499.228 51.1297 500.661 52.7115 501.715 54.6584C502.77 56.6053 503.297 58.9173 503.297 61.5943V92.1769H491.332V85.8495H491.007C490.277 87.2826 489.304 88.54 488.087 89.6216C486.87 90.6762 485.41 91.5144 483.706 92.1363C482.003 92.7312 480.029 93.0287 477.785 93.0287ZM481.394 84.3487C483.233 84.3487 484.856 83.9837 486.262 83.2536C487.695 82.4965 488.804 81.496 489.588 80.2521C490.399 78.9812 490.804 77.5616 490.804 75.9933V71.1666C490.426 71.4099 489.885 71.6398 489.182 71.8561C488.506 72.0724 487.749 72.2617 486.911 72.4239C486.072 72.5862 485.234 72.7349 484.396 72.8701C483.558 72.9783 482.801 73.0864 482.125 73.1946C480.637 73.4109 479.339 73.7624 478.231 74.2492C477.122 74.7088 476.257 75.3443 475.635 76.1555C475.04 76.9397 474.743 77.9266 474.743 79.1164C474.743 80.82 475.364 82.1179 476.608 83.0102C477.852 83.9026 479.448 84.3487 481.394 84.3487Z" fill="#8164FF"/>
<path d="M523.172 31.7418V92.1769H510.639V31.7418H523.172Z" fill="#8164FF"/>
<path d="M530.594 92.1769V46.8303H542.722V54.7801H543.209C544.047 51.9679 545.44 49.8453 547.386 48.4121C549.333 46.9519 551.564 46.2219 554.079 46.2219C554.728 46.2219 555.404 46.2624 556.107 46.3435C556.837 46.3976 557.486 46.5058 558.054 46.668V57.7816C557.459 57.5923 556.634 57.4436 555.58 57.3354C554.552 57.2002 553.592 57.1326 552.7 57.1326C550.888 57.1326 549.252 57.5382 547.792 58.3494C546.332 59.1336 545.183 60.2423 544.344 61.6754C543.533 63.0815 543.128 64.7039 543.128 66.5427V92.1769H530.594Z" fill="#8164FF"/>
<path d="M590.867 72.9107V46.8303H603.4V92.1769H591.354V83.9431H590.867C589.84 86.566 588.15 88.7022 585.797 90.3517C583.445 91.9741 580.565 92.7718 577.158 92.7448C574.129 92.7448 571.452 92.0687 569.127 90.7167C566.828 89.3377 565.03 87.3772 563.732 84.8355C562.461 82.2937 561.826 79.2516 561.826 75.7093V46.8303H574.359V73.5191C574.359 76.169 575.076 78.2782 576.509 79.8465C577.942 81.3878 579.848 82.1449 582.228 82.1179C583.742 82.1179 585.148 81.7799 586.446 81.1039C587.744 80.4008 588.799 79.3598 589.61 77.9807C590.448 76.6017 590.867 74.9117 590.867 72.9107Z" fill="#8164FF"/>
<path d="M648.463 59.7691L636.985 60.4586C636.687 59.0255 635.889 57.7951 634.591 56.7676C633.294 55.713 631.549 55.1857 629.359 55.1857C627.412 55.1857 625.776 55.5913 624.451 56.4025C623.153 57.2137 622.504 58.2954 622.504 59.6474C622.504 60.729 622.924 61.6619 623.762 62.4461C624.627 63.2032 626.101 63.7981 628.183 64.2307L636.417 65.8531C640.824 66.7455 644.11 68.1921 646.273 70.1931C648.436 72.1941 649.518 74.8305 649.518 78.1024C649.518 81.1039 648.652 83.7268 646.922 85.9712C645.191 88.1885 642.812 89.9326 639.783 91.2035C636.755 92.4473 633.28 93.0692 629.359 93.0692C623.356 93.0692 618.57 91.8119 615.001 89.2971C611.458 86.7824 609.39 83.3753 608.795 79.0759L621.085 78.4269C621.49 80.2656 622.41 81.6582 623.843 82.6046C625.276 83.551 627.115 84.0242 629.359 84.0242C631.549 84.0242 633.321 83.5916 634.673 82.7263C636.052 81.861 636.741 80.7659 636.741 79.4409C636.741 77.1966 634.794 75.6823 630.9 74.8981L623.072 73.2757C618.665 72.3834 615.379 70.8556 613.216 68.6924C611.053 66.5291 609.971 63.7575 609.971 60.3775C609.971 57.4571 610.769 54.9424 612.364 52.8332C613.96 50.7241 616.191 49.1016 619.057 47.966C621.95 46.8303 625.33 46.2624 629.197 46.2624C634.93 46.2624 639.432 47.4792 642.704 49.9129C646.003 52.3194 647.922 55.6048 648.463 59.7691Z" fill="#8164FF"/>
<g clip-path="url(#clip0_2066_1869)">
<path d="M58.5682 0.0361444C61.7064 -0.167299 64.7093 0.505074 67.521 1.84405L108.144 25.0395C112.798 28.0305 115.403 32.1831 116.225 37.5996C117.178 43.876 117.354 51.213 117.86 57.638C118.448 65.1005 119.313 73.0088 119.632 80.428C119.95 87.801 117.819 92.8063 111.525 96.8709C102.37 102.782 92.3014 108.192 82.8737 113.777C78.1443 116.579 73.2106 119.962 68.4019 122.519C63.2755 125.243 57.0697 125.425 51.8507 122.838C40.2126 115.788 28.379 109.047 16.6983 102.067C5.6735 95.4742 -0.752865 93.4267 0.070651 78.9909C0.847108 65.3747 2.39855 51.78 3.15883 38.158C4.025 31.2827 7.397 27.3798 13.2057 23.9198C25.7923 16.4184 38.8406 9.61962 51.4404 2.13262C53.63 0.961018 56.0594 0.199188 58.5682 0.0361444ZM104.626 95.366C108.2 93.3517 112.407 91.3418 114.003 87.3234C115.598 83.3051 114.623 78.0386 114.33 73.9409C113.548 62.9809 112.688 51.9835 111.686 41.0408C111.081 34.4094 110.306 31.9118 104.378 28.3003C91.6368 20.5406 78.2296 13.7534 65.4607 6.02834C61.9005 4.2897 57.2888 4.26228 53.7933 6.17263L13.5498 29.1646C8.94697 32.2682 8.17787 35.9374 7.71317 41.0408C6.87495 50.2607 6.31319 59.5094 5.65438 68.7437C5.33821 73.1704 4.51911 78.3864 4.62057 82.7481C4.69557 85.9527 6.22055 89.5931 8.9455 91.4587L18.7556 82.7438C18.8865 82.624 18.8865 82.5072 18.8689 82.3441C18.8027 81.741 18.2203 80.5463 18.0527 79.8105C16.1027 71.237 20.0909 62.8179 26.9923 57.6452C33.3495 52.8795 42.5949 50.6546 46.614 43.5673C50.1977 37.249 49.4169 29.4777 53.7712 23.4639C58.6888 16.6694 68.6739 14.4157 76.1958 18.2898C78.4164 19.434 79.6237 20.1222 82.0163 21.0918C86.4324 22.8838 89.9912 26.6468 89.625 31.6579C89.5383 32.8367 88.4559 34.7139 88.4574 35.102C88.4603 36.1553 89.1941 38.2965 89.3324 39.5979C89.6338 42.4418 89.1339 45.5699 89.4133 48.2032C89.4853 48.8784 90.0985 50.2275 90.2897 51.0658C91.4456 56.1201 91.1426 62.1109 89.2956 66.9748C88.3853 69.3714 86.7971 71.061 88.7441 73.648C90.4338 75.8917 96.1749 77.2191 98.8425 78.4571C101.085 79.4974 101.816 80.6358 99.9204 82.6644C101.103 83.1795 104.626 85.2977 104.626 86.6352V95.3645V95.366ZM70.1798 21.9503C68.1048 22.2071 68.1445 25.8518 70.993 25.2126C72.8591 24.7927 72.3768 21.6791 70.1798 21.9503ZM82.1237 28.1272C82.9119 26.8027 84.1869 25.7465 85.2163 24.5936V24.3036C83.0545 23.5779 80.5516 23.5577 78.5223 24.6643L81.1016 27.0422L81.8207 28.0363L82.1237 28.1272ZM65.4078 35.5897C65.6681 35.8999 66.0975 35.9836 66.4475 35.7599C66.8783 35.4843 68.0548 33.7471 68.6666 33.1758C69.1107 32.7617 70.968 31.5987 70.918 31.1096C70.2283 29.0752 67.7754 31.6853 66.9739 32.5265C66.4107 33.1195 64.7622 34.8235 65.4063 35.5897H65.4078ZM73.2665 34.2983C73.7371 33.8265 73.5135 32.4774 72.3841 32.7804C71.093 33.1267 69.2562 35.858 68.1769 36.7324C67.8122 37.2288 68.0548 38.1089 68.7048 38.2056C69.4636 38.3196 71.1327 35.9172 71.7547 35.3386C72.0283 35.0847 72.418 34.799 72.7238 34.5551C72.8827 34.4282 73.1621 34.4022 73.2665 34.2983ZM86.3898 37.0744C84.8678 37.5289 83.3766 37.7049 81.8325 37.2201C83.1398 43.1127 83.5119 49.2954 83.3075 55.3338C83.2825 56.0754 82.4001 59.6595 84.0016 58.9005C85.3692 58.2527 86.5986 51.5448 86.8089 49.9692C87.2295 46.8166 87.3942 43.055 86.9589 39.9067C86.828 38.9559 86.4736 38.0339 86.3868 37.0758L86.3898 37.0744ZM77.7135 37.7972C75.8282 38.2979 73.9356 38.6976 71.9797 38.3758C72.0886 38.5923 72.1297 38.7697 72.1356 39.015C72.29 45.355 71.4474 51.2664 71.2386 57.4865C71.2033 58.5268 70.893 60.7719 72.5768 60.2409C73.3135 60.0086 73.9856 58.257 74.2532 57.5572C76.5649 51.49 76.9605 44.2021 77.7149 37.7972H77.7135ZM83.156 54.1001V50.0601H83.009V54.1001H83.156ZM53.1565 70.1144C51.7757 67.1205 50.6536 64.0025 50.1419 60.7373C48.4963 63.0718 48.3154 66.1913 49.3301 68.8072C48.0772 69.4493 46.8669 70.188 45.6684 70.921C43.2052 72.4259 37.6259 75.303 36.4171 77.7154C36.0612 78.4268 35.9495 79.1569 35.8039 79.9259C35.9274 80.0341 38.6244 78.8452 38.8259 78.6374C39.1479 78.3041 39.3626 77.1426 39.9214 76.5381C40.2891 76.1384 40.9273 75.8094 41.4097 75.5454C44.7567 73.7086 49.0801 71.8156 52.6139 70.2313C52.7859 70.1548 52.9668 70.1116 53.1565 70.1159V70.1144ZM67.5651 64.6345L67.271 64.708C67.921 69.9629 66.8975 75.6406 61.8343 78.4167C57.4388 80.8277 50.808 80.5146 45.8669 80.3703C45.6169 80.3631 45.4375 80.3198 45.2155 80.2174V80.503L59.8373 85.6959L74.4767 80.5045L66.9783 78.1959C69.9077 74.8225 70.493 70.53 68.5533 66.4799C68.2577 65.8609 67.7563 65.2996 67.5636 64.6359L67.5651 64.6345ZM88.303 82.5245H84.4795V82.6688H88.303V82.5245ZM79.3325 82.8131L61.8328 89.1617V106.187L79.3325 98.901V82.8131ZM83.3031 82.8131V89.1617L97.4219 85.1923L94.5279 83.2719L93.6588 82.9703L83.3045 82.8131H83.3031ZM36.245 89.3059V82.9574L29.9143 85.7637L29.476 86.2023L36.245 89.3074V89.3059ZM57.7138 106.187L57.7947 89.3059L40.3626 82.9588L40.2317 99.103L57.7138 106.189V106.187ZM83.156 89.0174V82.9574H83.009V89.0174H83.156ZM100.656 88.2959L83.2928 93.5566L83.3045 108.063L100.656 97.7467V88.2959ZM36.0774 93.2219L25.9526 89.3059C24.0379 92.7356 24.2394 96.5318 23.3056 100.208L36.2421 108.063L36.0759 93.2219H36.0774ZM16.6851 96.5202C16.6763 94.9389 17.0998 93.3993 17.5674 91.9045L14.1881 95.0081L14.3748 95.2534L16.6865 96.5202H16.6851ZM83.156 107.775V93.9231H83.009V107.775H83.156ZM36.5392 104.6V99.1174H36.3921V104.6H36.5392ZM61.8328 119.75C63.2284 119.593 64.6563 118.955 65.9019 118.332C69.7812 116.393 74.8282 113.413 78.4943 111.064C78.7884 110.877 79.0973 110.708 79.3325 110.444V103.302L61.8328 110.516V119.75ZM57.7153 119.75V110.588L40.2156 103.446V110.444L53.6153 118.362C54.9374 118.916 56.2462 119.635 57.7153 119.75Z" fill="#8164FF"/>
<path d="M83.1558 93.923H83.0088V107.774H83.1558V93.923Z" fill="#8164FF"/>
<path d="M83.1558 82.9573H83.0088V89.0173H83.1558V82.9573Z" fill="#8164FF"/>
<path d="M36.5391 99.1173H36.3921V104.6H36.5391V99.1173Z" fill="#8164FF"/>
<path d="M83.1558 50.0601H83.0088V54.1001H83.1558V50.0601Z" fill="#8164FF"/>
<path d="M88.303 82.5244H84.4795V82.6687H88.303V82.5244Z" fill="#8164FF"/>
</g>
<defs>
<clipPath id="clip0_2066_1869">
<rect width="119.663" height="124.672" fill="white"/>
</clipPath>
</defs>
</svg>
