<svg width="650" height="125" viewBox="0 0 650 125" fill="none" xmlns="http://www.w3.org/2000/svg">
<path d="M161.169 92.9882C155.815 92.9882 151.016 91.7714 146.77 89.3378C142.525 86.9042 139.172 83.3754 136.711 78.7515C134.251 74.1276 133.02 68.5438 133.02 62C133.02 55.4022 134.251 49.7913 136.711 45.1674C139.199 40.5165 142.566 36.9877 146.811 34.5811C151.083 32.1475 155.869 30.9307 161.169 30.9307C164.684 30.9307 167.943 31.4309 170.944 32.4314C173.946 33.4049 176.596 34.838 178.894 36.7308C181.22 38.5966 183.112 40.895 184.573 43.6261C186.033 46.3301 186.966 49.4263 187.371 52.9145H174.473C174.23 51.265 173.743 49.7778 173.013 48.4528C172.31 47.1278 171.377 46.0057 170.214 45.0863C169.079 44.1669 167.767 43.4639 166.28 42.9771C164.82 42.4634 163.211 42.2065 161.453 42.2065C158.371 42.2065 155.653 42.9907 153.301 44.559C150.975 46.1003 149.163 48.3446 147.865 51.292C146.595 54.2124 145.959 57.7817 145.959 62C145.959 66.2994 146.608 69.9228 147.906 72.8702C149.204 75.7906 151.016 77.9944 153.341 79.4816C155.667 80.9688 158.357 81.7124 161.413 81.7124C163.116 81.7124 164.698 81.4826 166.158 81.0229C167.618 80.5632 168.916 79.9007 170.052 79.0354C171.188 78.1701 172.134 77.1156 172.891 75.8717C173.675 74.6008 174.203 73.1542 174.473 71.5317H187.371C187.047 74.3169 186.222 76.9939 184.897 79.5627C183.599 82.1315 181.828 84.43 179.584 86.458C177.339 88.459 174.676 90.0544 171.593 91.2441C168.511 92.4069 165.036 92.9882 161.169 92.9882Z" fill="#8F9197"/>
<path d="M193.699 92.177V46.8304H205.826V54.7802H206.313C207.151 51.968 208.544 49.8454 210.491 48.4122C212.438 46.9521 214.669 46.222 217.183 46.222C217.832 46.222 218.508 46.2625 219.211 46.3437C219.941 46.3977 220.59 46.5059 221.158 46.6681V57.7817C220.563 57.5924 219.739 57.4437 218.684 57.3356C217.657 57.2004 216.697 57.1328 215.804 57.1328C213.993 57.1328 212.357 57.5384 210.896 58.3496C209.436 59.1337 208.287 60.2424 207.449 61.6755C206.638 63.0816 206.232 64.704 206.232 66.5428V92.177H193.699Z" fill="#8F9197"/>
<path d="M243.223 93.0694C238.653 93.0694 234.692 92.0959 231.339 90.149C228.013 88.1751 225.444 85.444 223.632 81.9558C221.848 78.4405 220.955 74.3574 220.955 69.7065C220.955 65.0015 221.848 60.9049 223.632 57.4167C225.444 53.9014 228.013 51.1704 231.339 49.2235C234.692 47.2495 238.653 46.2625 243.223 46.2625C247.82 46.2625 251.781 47.2495 255.107 49.2235C258.46 51.1704 261.029 53.9014 262.814 57.4167C264.626 60.9049 265.531 65.0015 265.531 69.7065C265.531 74.3574 264.626 78.4405 262.814 81.9558C261.029 85.444 258.46 88.1751 255.107 90.149C251.781 92.0959 247.82 93.0694 243.223 93.0694ZM243.304 83.2537C245.386 83.2537 247.13 82.6724 248.537 81.5096C249.943 80.3198 250.997 78.6974 251.7 76.6424C252.43 74.5873 252.795 72.2483 252.795 69.6254C252.795 66.9754 252.43 64.6364 251.7 62.6084C250.997 60.5804 249.943 58.985 248.537 57.8223C247.13 56.6595 245.386 56.0782 243.304 56.0782C241.195 56.0782 239.424 56.6595 237.991 57.8223C236.585 58.985 235.517 60.5804 234.787 62.6084C234.084 64.6364 233.732 66.9754 233.732 69.6254C233.732 72.2483 234.084 74.5873 234.787 76.6424C235.517 78.6974 236.585 80.3198 237.991 81.5096C239.424 82.6724 241.195 83.2537 243.304 83.2537Z" fill="#8F9197"/>
<path d="M278.835 92.177L266.505 46.8304H279.241L286.258 77.3319H286.663L294.005 46.8304H306.457L313.88 77.1291H314.285L321.18 46.8304H333.876L321.546 92.177H308.282L300.495 63.663H299.927L292.139 92.177H278.835Z" fill="#8F9197"/>
<path d="M353.264 92.9071C349.803 92.9071 346.679 92.0148 343.894 90.2301C341.109 88.4455 338.905 85.8225 337.283 82.3614C335.661 78.8732 334.849 74.6143 334.849 69.5848C334.849 64.3931 335.688 60.0666 337.364 56.6055C339.041 53.1443 341.271 50.5619 344.057 48.8584C346.842 47.1278 349.884 46.2625 353.183 46.2625C355.724 46.2625 357.847 46.6952 359.551 47.5605C361.254 48.3987 362.633 49.4533 363.688 50.7242C364.742 51.9951 365.54 53.2525 366.081 54.4963H366.446V31.7419H379.02V92.177H366.649V84.9167H366.081C365.513 86.1606 364.688 87.4044 363.607 88.6483C362.525 89.8651 361.133 90.8791 359.429 91.6903C357.752 92.5015 355.697 92.9071 353.264 92.9071ZM357.198 82.9292C359.226 82.9292 360.943 82.3749 362.349 81.2663C363.782 80.1306 364.864 78.5622 365.594 76.5612C366.351 74.5603 366.73 72.2213 366.73 69.5443C366.73 66.8402 366.365 64.5012 365.635 62.5273C364.905 60.5263 363.823 58.985 362.39 57.9034C360.957 56.7947 359.226 56.2404 357.198 56.2404C355.143 56.2404 353.413 56.8083 352.006 57.944C350.6 59.0797 349.532 60.648 348.802 62.649C348.072 64.6229 347.707 66.9214 347.707 69.5443C347.707 72.1672 348.072 74.4926 348.802 76.5207C349.532 78.5217 350.6 80.09 352.006 81.2257C353.44 82.3614 355.17 82.9292 357.198 82.9292Z" fill="#8F9197"/>
<path d="M400.152 92.177L382.873 31.7419H396.826L406.844 73.722H407.372L418.363 31.7419H430.329L441.321 73.8437H441.848L451.866 31.7419H465.819L448.5 92.177H436.048L424.61 52.6711H424.123L412.644 92.177H400.152Z" fill="#05060C"/>
<path d="M477.785 93.0288C474.918 93.0288 472.336 92.5286 470.038 91.5281C467.766 90.5005 465.981 88.9863 464.684 86.9853C463.386 84.9843 462.737 82.4966 462.737 79.5222C462.737 76.9804 463.196 74.8712 464.116 73.1947C465.035 71.4912 466.292 70.1121 467.888 69.0575C469.483 68.003 471.295 67.2053 473.323 66.6645C475.351 66.1237 477.501 65.7451 479.772 65.5288C482.395 65.2854 484.504 65.042 486.1 64.7987C487.695 64.5553 488.858 64.1903 489.588 63.7036C490.345 63.1898 490.723 62.4597 490.723 61.5133V61.3105C490.723 59.4447 490.129 57.998 488.939 56.9705C487.776 55.943 486.127 55.4292 483.99 55.4292C481.746 55.4292 479.948 55.9295 478.596 56.9299C477.271 57.9034 476.392 59.1473 475.959 60.6615L464.319 59.7286C464.913 56.9705 466.076 54.591 467.807 52.59C469.537 50.5619 471.768 49.0071 474.499 47.9255C477.257 46.8169 480.448 46.2625 484.071 46.2625C486.586 46.2625 488.993 46.56 491.291 47.1549C493.59 47.7498 495.631 48.6691 497.416 49.913C499.228 51.1298 500.661 52.7117 501.715 54.6586C502.77 56.6055 503.297 58.9174 503.297 61.5944V92.177H491.332V85.8496H491.007C490.277 87.2827 489.304 88.5401 488.087 89.6217C486.87 90.6763 485.41 91.5145 483.706 92.1365C482.003 92.7314 480.029 93.0288 477.785 93.0288ZM481.394 84.3489C483.233 84.3489 484.856 83.9838 486.262 83.2537C487.695 82.4966 488.804 81.4961 489.588 80.2522C490.399 78.9813 490.804 77.5617 490.804 75.9934V71.1667C490.426 71.41 489.885 71.6399 489.182 71.8562C488.506 72.0725 487.749 72.2618 486.911 72.4241C486.072 72.5863 485.234 72.735 484.396 72.8702C483.558 72.9784 482.801 73.0866 482.125 73.1947C480.637 73.411 479.339 73.7626 478.231 74.2493C477.122 74.709 476.257 75.3444 475.635 76.1556C475.04 76.9398 474.743 77.9268 474.743 79.1165C474.743 80.8201 475.364 82.118 476.608 83.0104C477.852 83.9027 479.448 84.3489 481.394 84.3489Z" fill="#05060C"/>
<path d="M523.172 31.7419V92.177H510.639V31.7419H523.172Z" fill="#05060C"/>
<path d="M530.594 92.177V46.8304H542.722V54.7802H543.209C544.047 51.968 545.44 49.8454 547.386 48.4122C549.333 46.9521 551.564 46.222 554.079 46.222C554.728 46.222 555.404 46.2625 556.107 46.3437C556.837 46.3977 557.486 46.5059 558.054 46.6681V57.7817C557.459 57.5924 556.634 57.4437 555.58 57.3356C554.552 57.2004 553.592 57.1328 552.7 57.1328C550.888 57.1328 549.252 57.5384 547.792 58.3496C546.332 59.1337 545.183 60.2424 544.344 61.6755C543.533 63.0816 543.128 64.704 543.128 66.5428V92.177H530.594Z" fill="#05060C"/>
<path d="M590.867 72.9108V46.8304H603.4V92.177H591.354V83.9432H590.867C589.84 86.5662 588.15 88.7023 585.797 90.3518C583.445 91.9742 580.565 92.7719 577.158 92.7449C574.129 92.7449 571.452 92.0689 569.127 90.7169C566.828 89.3378 565.03 87.3774 563.732 84.8356C562.461 82.2938 561.826 79.2517 561.826 75.7095V46.8304H574.359V73.5192C574.359 76.1692 575.076 78.2783 576.509 79.8466C577.942 81.3879 579.848 82.1451 582.228 82.118C583.742 82.118 585.148 81.78 586.446 81.104C587.744 80.401 588.799 79.3599 589.61 77.9809C590.448 76.6018 590.867 74.9118 590.867 72.9108Z" fill="#05060C"/>
<path d="M648.463 59.7692L636.985 60.4587C636.687 59.0256 635.889 57.7952 634.591 56.7677C633.294 55.7131 631.549 55.1858 629.359 55.1858C627.412 55.1858 625.776 55.5915 624.451 56.4027C623.153 57.2139 622.504 58.2955 622.504 59.6475C622.504 60.7291 622.924 61.662 623.762 62.4462C624.627 63.2033 626.101 63.7982 628.183 64.2308L636.417 65.8533C640.824 66.7456 644.11 68.1922 646.273 70.1932C648.436 72.1942 649.518 74.8307 649.518 78.1025C649.518 81.104 648.652 83.7269 646.922 85.9713C645.191 88.1886 642.812 89.9327 639.783 91.2036C636.755 92.4474 633.28 93.0694 629.359 93.0694C623.356 93.0694 618.57 91.812 615.001 89.2972C611.458 86.7825 609.39 83.3754 608.795 79.076L621.085 78.427C621.49 80.2658 622.41 81.6583 623.843 82.6047C625.276 83.5512 627.115 84.0244 629.359 84.0244C631.549 84.0244 633.321 83.5917 634.673 82.7264C636.052 81.8611 636.741 80.766 636.741 79.441C636.741 77.1967 634.794 75.6824 630.9 74.8983L623.072 73.2758C618.665 72.3835 615.379 70.8557 613.216 68.6925C611.053 66.5293 609.971 63.7576 609.971 60.3776C609.971 57.4572 610.769 54.9425 612.364 52.8333C613.96 50.7242 616.191 49.1018 619.057 47.9661C621.95 46.8304 625.33 46.2625 629.197 46.2625C634.93 46.2625 639.432 47.4794 642.704 49.913C646.003 52.3196 647.922 55.605 648.463 59.7692Z" fill="#05060C"/>
<g clip-path="url(#clip0_2066_1647)">
<path d="M58.5682 0.0360223C61.7064 -0.167421 64.7093 0.504952 67.521 1.84393L108.144 25.0394C112.798 28.0304 115.403 32.183 116.225 37.5995C117.178 43.8759 117.354 51.2128 117.86 57.6379C118.448 65.1004 119.313 73.0087 119.632 80.4279C119.95 87.8009 117.819 92.8062 111.525 96.8707C102.37 102.782 92.3014 108.191 82.8737 113.777C78.1443 116.579 73.2106 119.962 68.4019 122.519C63.2755 125.243 57.0697 125.425 51.8507 122.838C40.2126 115.788 28.379 109.047 16.6983 102.066C5.6735 95.474 -0.752865 93.4266 0.070651 78.9908C0.847108 65.3745 2.39855 51.7799 3.15883 38.1578C4.025 31.2826 7.397 27.3797 13.2057 23.9197C25.7923 16.4183 38.8406 9.6195 51.4404 2.1325C53.63 0.960896 56.0594 0.199066 58.5682 0.0360223ZM104.626 95.3658C108.2 93.3516 112.407 91.3417 114.003 87.3233C115.598 83.305 114.623 78.0385 114.33 73.9408C113.548 62.9808 112.688 51.9833 111.686 41.0407C111.081 34.4093 110.306 31.9117 104.378 28.3002C91.6368 20.5405 78.2296 13.7533 65.4607 6.02822C61.9005 4.28958 57.2888 4.26216 53.7933 6.17251L13.5498 29.1645C8.94697 32.2681 8.17787 35.9373 7.71317 41.0407C6.87495 50.2606 6.31319 59.5093 5.65438 68.7436C5.33821 73.1703 4.51911 78.3862 4.62057 82.748C4.69557 85.9526 6.22055 89.5929 8.9455 91.4586L18.7556 82.7437C18.8865 82.6239 18.8865 82.5071 18.8689 82.344C18.8027 81.7409 18.2203 80.5462 18.0527 79.8104C16.1027 71.2369 20.0909 62.8178 26.9923 57.6451C33.3495 52.8793 42.5949 50.6545 46.614 43.5671C50.1977 37.2488 49.4169 29.4776 53.7712 23.4638C58.6888 16.6693 68.6739 14.4156 76.1958 18.2897C78.4164 19.4338 79.6237 20.1221 82.0163 21.0917C86.4324 22.8837 89.9912 26.6467 89.625 31.6578C89.5383 32.8366 88.4559 34.7137 88.4574 35.1019C88.4603 36.1552 89.1941 38.2964 89.3324 39.5978C89.6338 42.4417 89.1339 45.5698 89.4133 48.203C89.4853 48.8783 90.0985 50.2274 90.2897 51.0657C91.4456 56.12 91.1426 62.1108 89.2956 66.9747C88.3853 69.3712 86.7971 71.0608 88.7441 73.6479C90.4338 75.8915 96.1749 77.219 98.8425 78.4569C101.085 79.4972 101.816 80.6357 99.9204 82.6643C101.103 83.1794 104.626 85.2975 104.626 86.6351V95.3644V95.3658ZM70.1798 21.9502C68.1048 22.207 68.1445 25.8517 70.993 25.2125C72.8591 24.7926 72.3768 21.6789 70.1798 21.9502ZM82.1237 28.1271C82.9119 26.8025 84.1869 25.7464 85.2163 24.5935V24.3035C83.0545 23.5777 80.5516 23.5575 78.5223 24.6642L81.1016 27.042L81.8207 28.0362L82.1237 28.1271ZM65.4078 35.5896C65.6681 35.8998 66.0975 35.9835 66.4475 35.7598C66.8783 35.4842 68.0548 33.747 68.6666 33.1756C69.1107 32.7615 70.968 31.5986 70.918 31.1095C70.2283 29.075 67.7754 31.6852 66.9739 32.5264C66.4107 33.1194 64.7622 34.8234 65.4063 35.5896H65.4078ZM73.2665 34.2982C73.7371 33.8264 73.5135 32.4773 72.3841 32.7803C71.093 33.1266 69.2562 35.8579 68.1769 36.7323C67.8122 37.2286 68.0548 38.1088 68.7048 38.2055C69.4636 38.3194 71.1327 35.9171 71.7547 35.3385C72.0283 35.0846 72.418 34.7989 72.7238 34.555C72.8827 34.4281 73.1621 34.4021 73.2665 34.2982ZM86.3898 37.0743C84.8678 37.5288 83.3766 37.7048 81.8325 37.22C83.1398 43.1126 83.5119 49.2953 83.3075 55.3337C83.2825 56.0753 82.4001 59.6594 84.0016 58.9004C85.3692 58.2526 86.5986 51.5447 86.8089 49.9691C87.2295 46.8165 87.3942 43.0549 86.9589 39.9066C86.828 38.9557 86.4736 38.0338 86.3868 37.0757L86.3898 37.0743ZM77.7135 37.7971C75.8282 38.2978 73.9356 38.6975 71.9797 38.3757C72.0886 38.5921 72.1297 38.7696 72.1356 39.0149C72.29 45.3548 71.4474 51.2662 71.2386 57.4864C71.2033 58.5267 70.893 60.7718 72.5768 60.2408C73.3135 60.0085 73.9856 58.2569 74.2532 57.5571C76.5649 51.4899 76.9605 44.202 77.7149 37.7971H77.7135ZM83.156 54.1V50.06H83.009V54.1H83.156ZM53.1565 70.1143C51.7757 67.1204 50.6536 64.0024 50.1419 60.7372C48.4963 63.0717 48.3154 66.1912 49.3301 68.8071C48.0772 69.4492 46.8669 70.1879 45.6684 70.9209C43.2052 72.4258 37.6259 75.3029 36.4171 77.7153C36.0612 78.4266 35.9495 79.1567 35.8039 79.9258C35.9274 80.034 38.6244 78.8451 38.8259 78.6373C39.1479 78.304 39.3626 77.1425 39.9214 76.5379C40.2891 76.1383 40.9273 75.8093 41.4097 75.5453C44.7567 73.7085 49.0801 71.8155 52.6139 70.2312C52.7859 70.1547 52.9668 70.1114 53.1565 70.1158V70.1143ZM67.5651 64.6343L67.271 64.7079C67.921 69.9628 66.8975 75.6405 61.8343 78.4165C57.4388 80.8276 50.808 80.5145 45.8669 80.3702C45.6169 80.363 45.4375 80.3197 45.2155 80.2172V80.5029L59.8373 85.6958L74.4767 80.5044L66.9783 78.1958C69.9077 74.8224 70.493 70.5299 68.5533 66.4798C68.2577 65.8608 67.7563 65.2995 67.5636 64.6358L67.5651 64.6343ZM88.303 82.5244H84.4795V82.6687H88.303V82.5244ZM79.3325 82.8129L61.8328 89.1615V106.187L79.3325 98.9008V82.8129ZM83.3031 82.8129V89.1615L97.4219 85.1922L94.5279 83.2718L93.6588 82.9702L83.3045 82.8129H83.3031ZM36.245 89.3058V82.9572L29.9143 85.7636L29.476 86.2022L36.245 89.3073V89.3058ZM57.7138 106.187L57.7947 89.3058L40.3626 82.9587L40.2317 99.1028L57.7138 106.189V106.187ZM83.156 89.0172V82.9572H83.009V89.0172H83.156ZM100.656 88.2958L83.2928 93.5565L83.3045 108.063L100.656 97.7466V88.2958ZM36.0774 93.2217L25.9526 89.3058C24.0379 92.7355 24.2394 96.5317 23.3056 100.208L36.2421 108.063L36.0759 93.2217H36.0774ZM16.6851 96.5201C16.6763 94.9387 17.0998 93.3992 17.5674 91.9044L14.1881 95.008L14.3748 95.2533L16.6865 96.5201H16.6851ZM83.156 107.774V93.923H83.009V107.774H83.156ZM36.5392 104.6V99.1173H36.3921V104.6H36.5392ZM61.8328 119.75C63.2284 119.593 64.6563 118.955 65.9019 118.332C69.7812 116.393 74.8282 113.413 78.4943 111.064C78.7884 110.877 79.0973 110.708 79.3325 110.444V103.302L61.8328 110.516V119.75ZM57.7153 119.75V110.588L40.2156 103.446V110.444L53.6153 118.362C54.9374 118.916 56.2462 119.635 57.7153 119.75Z" fill="#05060C"/>
<path d="M83.1558 93.9231H83.0088V107.775H83.1558V93.9231Z" fill="#05060C"/>
<path d="M83.1558 82.9573H83.0088V89.0173H83.1558V82.9573Z" fill="#05060C"/>
<path d="M36.5391 99.1172H36.3921V104.6H36.5391V99.1172Z" fill="#05060C"/>
<path d="M83.1558 50.0601H83.0088V54.1001H83.1558V50.0601Z" fill="#05060C"/>
<path d="M88.303 82.5244H84.4795V82.6687H88.303V82.5244Z" fill="#05060C"/>
</g>
<defs>
<clipPath id="clip0_2066_1647">
<rect width="119.663" height="124.672" fill="white"/>
</clipPath>
</defs>
</svg>
