<svg width="650" height="125" viewBox="0 0 650 125" fill="none" xmlns="http://www.w3.org/2000/svg">
<path d="M161.169 92.9882C155.815 92.9882 151.016 91.7714 146.77 89.3377C142.525 86.9041 139.172 83.3753 136.711 78.7514C134.251 74.1275 133.02 68.5437 133.02 62C133.02 55.4021 134.251 49.7912 136.711 45.1673C139.199 40.5164 142.566 36.9876 146.811 34.581C151.083 32.1474 155.869 30.9306 161.169 30.9306C164.684 30.9306 167.943 31.4308 170.944 32.4313C173.946 33.4048 176.596 34.8379 178.894 36.7308C181.22 38.5965 183.112 40.895 184.573 43.626C186.033 46.3301 186.966 49.4262 187.371 52.9144H174.473C174.23 51.2649 173.743 49.7777 173.013 48.4527C172.31 47.1278 171.377 46.0056 170.214 45.0862C169.079 44.1668 167.767 43.4638 166.28 42.9771C164.82 42.4633 163.211 42.2064 161.453 42.2064C158.371 42.2064 155.653 42.9906 153.301 44.5589C150.975 46.1002 149.163 48.3446 147.865 51.292C146.595 54.2123 145.959 57.7817 145.959 62C145.959 66.2994 146.608 69.9228 147.906 72.8702C149.204 75.7905 151.016 77.9943 153.341 79.4815C155.667 80.9687 158.357 81.7124 161.413 81.7124C163.116 81.7124 164.698 81.4825 166.158 81.0228C167.618 80.5631 168.916 79.9007 170.052 79.0354C171.188 78.1701 172.134 77.1155 172.891 75.8716C173.675 74.6007 174.203 73.1541 174.473 71.5317H187.371C187.047 74.3168 186.222 76.9938 184.897 79.5627C183.599 82.1315 181.828 84.4299 179.584 86.4579C177.339 88.4589 174.676 90.0543 171.593 91.2441C168.511 92.4068 165.036 92.9882 161.169 92.9882Z" fill="#05060C"/>
<path d="M193.699 92.177V46.8303H205.826V54.7802H206.313C207.151 51.968 208.544 49.8453 210.491 48.4122C212.438 46.952 214.669 46.2219 217.183 46.2219C217.832 46.2219 218.508 46.2625 219.211 46.3436C219.941 46.3977 220.59 46.5058 221.158 46.6681V57.7817C220.563 57.5924 219.739 57.4437 218.684 57.3355C217.657 57.2003 216.697 57.1327 215.804 57.1327C213.993 57.1327 212.357 57.5383 210.896 58.3495C209.436 59.1337 208.287 60.2423 207.449 61.6755C206.638 63.0816 206.232 64.704 206.232 66.5427V92.177H193.699Z" fill="#05060C"/>
<path d="M243.223 93.0693C238.653 93.0693 234.692 92.0958 231.339 90.1489C228.013 88.175 225.444 85.4439 223.632 81.9557C221.848 78.4405 220.955 74.3574 220.955 69.7064C220.955 65.0014 221.848 60.9048 223.632 57.4166C225.444 53.9014 228.013 51.1703 231.339 49.2234C234.692 47.2494 238.653 46.2625 243.223 46.2625C247.82 46.2625 251.781 47.2494 255.107 49.2234C258.46 51.1703 261.029 53.9014 262.814 57.4166C264.626 60.9048 265.531 65.0014 265.531 69.7064C265.531 74.3574 264.626 78.4405 262.814 81.9557C261.029 85.4439 258.46 88.175 255.107 90.1489C251.781 92.0958 247.82 93.0693 243.223 93.0693ZM243.304 83.2537C245.386 83.2537 247.13 82.6723 248.537 81.5096C249.943 80.3198 250.997 78.6974 251.7 76.6423C252.43 74.5872 252.795 72.2482 252.795 69.6253C252.795 66.9754 252.43 64.6364 251.7 62.6084C250.997 60.5803 249.943 58.985 248.537 57.8222C247.13 56.6595 245.386 56.0781 243.304 56.0781C241.195 56.0781 239.424 56.6595 237.991 57.8222C236.585 58.985 235.517 60.5803 234.787 62.6084C234.084 64.6364 233.732 66.9754 233.732 69.6253C233.732 72.2482 234.084 74.5872 234.787 76.6423C235.517 78.6974 236.585 80.3198 237.991 81.5096C239.424 82.6723 241.195 83.2537 243.304 83.2537Z" fill="#05060C"/>
<path d="M278.835 92.177L266.505 46.8303H279.241L286.258 77.3318H286.663L294.005 46.8303H306.457L313.88 77.129H314.285L321.18 46.8303H333.876L321.546 92.177H308.282L300.495 63.6629H299.927L292.139 92.177H278.835Z" fill="#05060C"/>
<path d="M353.264 92.9071C349.803 92.9071 346.679 92.0147 343.894 90.2301C341.109 88.4454 338.905 85.8225 337.283 82.3613C335.661 78.8731 334.849 74.6143 334.849 69.5848C334.849 64.393 335.688 60.0666 337.364 56.6054C339.041 53.1442 341.271 50.5619 344.057 48.8583C346.842 47.1278 349.884 46.2625 353.183 46.2625C355.724 46.2625 357.847 46.6951 359.551 47.5604C361.254 48.3987 362.633 49.4532 363.688 50.7241C364.742 51.995 365.54 53.2524 366.081 54.4963H366.446V31.7418H379.02V92.177H366.649V84.9166H366.081C365.513 86.1605 364.688 87.4043 363.607 88.6482C362.525 89.865 361.133 90.879 359.429 91.6902C357.752 92.5015 355.697 92.9071 353.264 92.9071ZM357.198 82.9292C359.226 82.9292 360.943 82.3748 362.349 81.2662C363.782 80.1305 364.864 78.5622 365.594 76.5612C366.351 74.5602 366.73 72.2212 366.73 69.5442C366.73 66.8402 366.365 64.5012 365.635 62.5272C364.905 60.5263 363.823 58.985 362.39 57.9033C360.957 56.7947 359.226 56.2404 357.198 56.2404C355.143 56.2404 353.413 56.8082 352.006 57.9439C350.6 59.0796 349.532 60.6479 348.802 62.6489C348.072 64.6229 347.707 66.9213 347.707 69.5442C347.707 72.1671 348.072 74.4926 348.802 76.5206C349.532 78.5216 350.6 80.0899 352.006 81.2256C353.44 82.3613 355.17 82.9292 357.198 82.9292Z" fill="#05060C"/>
<path d="M400.152 92.177L382.873 31.7418H396.826L406.844 73.7219H407.372L418.363 31.7418H430.329L441.321 73.8436H441.848L451.866 31.7418H465.819L448.5 92.177H436.048L424.61 52.671H424.123L412.644 92.177H400.152Z" fill="#613DFF"/>
<path d="M477.785 93.0287C474.918 93.0287 472.336 92.5285 470.038 91.528C467.766 90.5005 465.981 88.9862 464.684 86.9852C463.386 84.9842 462.737 82.4965 462.737 79.5221C462.737 76.9803 463.196 74.8712 464.116 73.1947C465.035 71.4911 466.292 70.1121 467.888 69.0575C469.483 68.0029 471.295 67.2052 473.323 66.6644C475.351 66.1236 477.501 65.745 479.772 65.5287C482.395 65.2854 484.504 65.042 486.1 64.7986C487.695 64.5553 488.858 64.1902 489.588 63.7035C490.345 63.1897 490.723 62.4596 490.723 61.5132V61.3104C490.723 59.4446 490.129 57.998 488.939 56.9704C487.776 55.9429 486.127 55.4291 483.99 55.4291C481.746 55.4291 479.948 55.9294 478.596 56.9299C477.271 57.9033 476.392 59.1472 475.959 60.6615L464.319 59.7286C464.913 56.9704 466.076 54.5909 467.807 52.5899C469.537 50.5619 471.768 49.0071 474.499 47.9255C477.257 46.8168 480.448 46.2625 484.071 46.2625C486.586 46.2625 488.993 46.5599 491.291 47.1548C493.59 47.7497 495.631 48.6691 497.416 49.9129C499.228 51.1297 500.661 52.7116 501.715 54.6585C502.77 56.6054 503.297 58.9174 503.297 61.5943V92.177H491.332V85.8495H491.007C490.277 87.2827 489.304 88.54 488.087 89.6217C486.87 90.6762 485.41 91.5145 483.706 92.1364C482.003 92.7313 480.029 93.0287 477.785 93.0287ZM481.394 84.3488C483.233 84.3488 484.856 83.9837 486.262 83.2537C487.695 82.4965 488.804 81.496 489.588 80.2522C490.399 78.9813 490.804 77.5617 490.804 75.9933V71.1666C490.426 71.41 489.885 71.6398 489.182 71.8562C488.506 72.0725 487.749 72.2618 486.911 72.424C486.072 72.5862 485.234 72.735 484.396 72.8702C483.558 72.9783 482.801 73.0865 482.125 73.1947C480.637 73.411 479.339 73.7625 478.231 74.2492C477.122 74.7089 476.257 75.3444 475.635 76.1556C475.04 76.9397 474.743 77.9267 474.743 79.1165C474.743 80.82 475.364 82.118 476.608 83.0103C477.852 83.9026 479.448 84.3488 481.394 84.3488Z" fill="#613DFF"/>
<path d="M523.172 31.7418V92.177H510.639V31.7418H523.172Z" fill="#613DFF"/>
<path d="M530.594 92.177V46.8303H542.722V54.7802H543.209C544.047 51.968 545.44 49.8453 547.386 48.4122C549.333 46.952 551.564 46.2219 554.079 46.2219C554.728 46.2219 555.404 46.2625 556.107 46.3436C556.837 46.3977 557.486 46.5058 558.054 46.6681V57.7817C557.459 57.5924 556.634 57.4437 555.58 57.3355C554.552 57.2003 553.592 57.1327 552.7 57.1327C550.888 57.1327 549.252 57.5383 547.792 58.3495C546.332 59.1337 545.183 60.2423 544.344 61.6755C543.533 63.0816 543.128 64.704 543.128 66.5427V92.177H530.594Z" fill="#613DFF"/>
<path d="M590.867 72.9107V46.8303H603.4V92.177H591.354V83.9432H590.867C589.84 86.5661 588.15 88.7023 585.797 90.3517C583.445 91.9742 580.565 92.7719 577.158 92.7448C574.129 92.7448 571.452 92.0688 569.127 90.7168C566.828 89.3377 565.03 87.3773 563.732 84.8355C562.461 82.2937 561.826 79.2517 561.826 75.7094V46.8303H574.359V73.5191C574.359 76.1691 575.076 78.2782 576.509 79.8466C577.942 81.3879 579.848 82.145 582.228 82.118C583.742 82.118 585.148 81.78 586.446 81.1039C587.744 80.4009 588.799 79.3598 589.61 77.9808C590.448 76.6017 590.867 74.9117 590.867 72.9107Z" fill="#613DFF"/>
<path d="M648.463 59.7691L636.985 60.4587C636.687 59.0255 635.889 57.7952 634.591 56.7676C633.294 55.7131 631.549 55.1858 629.359 55.1858C627.412 55.1858 625.776 55.5914 624.451 56.4026C623.153 57.2138 622.504 58.2954 622.504 59.6474C622.504 60.7291 622.924 61.6619 623.762 62.4461C624.627 63.2032 626.101 63.7981 628.183 64.2308L636.417 65.8532C640.824 66.7455 644.11 68.1922 646.273 70.1932C648.436 72.1942 649.518 74.8306 649.518 78.1025C649.518 81.1039 648.652 83.7269 646.922 85.9712C645.191 88.1885 642.812 89.9326 639.783 91.2035C636.755 92.4474 633.28 93.0693 629.359 93.0693C623.356 93.0693 618.57 91.8119 615.001 89.2972C611.458 86.7824 609.39 83.3753 608.795 79.0759L621.085 78.427C621.49 80.2657 622.41 81.6583 623.843 82.6047C625.276 83.5511 627.115 84.0243 629.359 84.0243C631.549 84.0243 633.321 83.5917 634.673 82.7264C636.052 81.8611 636.741 80.7659 636.741 79.441C636.741 77.1966 634.794 75.6824 630.9 74.8982L623.072 73.2758C618.665 72.3834 615.379 70.8557 613.216 68.6924C611.053 66.5292 609.971 63.7576 609.971 60.3775C609.971 57.4572 610.769 54.9424 612.364 52.8333C613.96 50.7241 616.191 49.1017 619.057 47.966C621.95 46.8303 625.33 46.2625 629.197 46.2625C634.93 46.2625 639.432 47.4793 642.704 49.9129C646.003 52.3195 647.922 55.6049 648.463 59.7691Z" fill="#613DFF"/>
<g clip-path="url(#clip0_2066_1771)">
<path d="M58.5682 0.0361139C61.7064 -0.167329 64.7093 0.505044 67.521 1.84402L108.144 25.0394C112.798 28.0305 115.403 32.183 116.225 37.5995C117.178 43.876 117.354 51.2129 117.86 57.638C118.448 65.1005 119.313 73.0088 119.632 80.428C119.95 87.801 117.819 92.8063 111.525 96.8708C102.37 102.782 92.3014 108.192 82.8737 113.777C78.1443 116.579 73.2106 119.962 68.4019 122.519C63.2755 125.243 57.0697 125.425 51.8507 122.838C40.2126 115.788 28.379 109.047 16.6983 102.067C5.6735 95.4741 -0.752865 93.4267 0.070651 78.9909C0.847108 65.3746 2.39855 51.78 3.15883 38.1579C4.025 31.2827 7.397 27.3798 13.2057 23.9198C25.7923 16.4184 38.8406 9.61959 51.4404 2.13259C53.63 0.960988 56.0594 0.199157 58.5682 0.0361139ZM104.626 95.3659C108.2 93.3517 112.407 91.3418 114.003 87.3234C115.598 83.3051 114.623 78.0386 114.33 73.9409C113.548 62.9809 112.688 51.9834 111.686 41.0408C111.081 34.4094 110.306 31.9118 104.378 28.3003C91.6368 20.5406 78.2296 13.7534 65.4607 6.02831C61.9005 4.28967 57.2888 4.26225 53.7933 6.1726L13.5498 29.1646C8.94697 32.2682 8.17787 35.9374 7.71317 41.0408C6.87495 50.2606 6.31319 59.5094 5.65438 68.7437C5.33821 73.1704 4.51911 78.3863 4.62057 82.7481C4.69557 85.9527 6.22055 89.593 8.9455 91.4587L18.7556 82.7438C18.8865 82.624 18.8865 82.5071 18.8689 82.3441C18.8027 81.741 18.2203 80.5463 18.0527 79.8104C16.1027 71.237 20.0909 62.8179 26.9923 57.6452C33.3495 52.8794 42.5949 50.6546 46.614 43.5672C50.1977 37.2489 49.4169 29.4777 53.7712 23.4638C58.6888 16.6694 68.6739 14.4157 76.1958 18.2897C78.4164 19.4339 79.6237 20.1222 82.0163 21.0918C86.4324 22.8838 89.9912 26.6468 89.625 31.6578C89.5383 32.8367 88.4559 34.7138 88.4574 35.102C88.4603 36.1552 89.1941 38.2964 89.3324 39.5979C89.6338 42.4418 89.1339 45.5699 89.4133 48.2031C89.4853 48.8784 90.0985 50.2275 90.2897 51.0658C91.4456 56.1201 91.1426 62.1109 89.2956 66.9747C88.3853 69.3713 86.7971 71.0609 88.7441 73.648C90.4338 75.8916 96.1749 77.2191 98.8425 78.457C101.085 79.4973 101.816 80.6358 99.9204 82.6644C101.103 83.1795 104.626 85.2976 104.626 86.6352V95.3645V95.3659ZM70.1798 21.9503C68.1048 22.2071 68.1445 25.8518 70.993 25.2126C72.8591 24.7927 72.3768 21.679 70.1798 21.9503ZM82.1237 28.1272C82.9119 26.8026 84.1869 25.7464 85.2163 24.5936V24.3036C83.0545 23.5778 80.5516 23.5576 78.5223 24.6643L81.1016 27.0421L81.8207 28.0363L82.1237 28.1272ZM65.4078 35.5896C65.6681 35.8999 66.0975 35.9835 66.4475 35.7599C66.8783 35.4843 68.0548 33.7471 68.6666 33.1757C69.1107 32.7616 70.968 31.5987 70.918 31.1096C70.2283 29.0751 67.7754 31.6853 66.9739 32.5264C66.4107 33.1195 64.7622 34.8235 65.4063 35.5896H65.4078ZM73.2665 34.2983C73.7371 33.8265 73.5135 32.4774 72.3841 32.7804C71.093 33.1267 69.2562 35.858 68.1769 36.7324C67.8122 37.2287 68.0548 38.1089 68.7048 38.2055C69.4636 38.3195 71.1327 35.9172 71.7547 35.3386C72.0283 35.0846 72.418 34.799 72.7238 34.5551C72.8827 34.4281 73.1621 34.4022 73.2665 34.2983ZM86.3898 37.0743C84.8678 37.5288 83.3766 37.7049 81.8325 37.2201C83.1398 43.1127 83.5119 49.2954 83.3075 55.3337C83.2825 56.0754 82.4001 59.6594 84.0016 58.9005C85.3692 58.2527 86.5986 51.5448 86.8089 49.9692C87.2295 46.8165 87.3942 43.055 86.9589 39.9067C86.828 38.9558 86.4736 38.0338 86.3868 37.0758L86.3898 37.0743ZM77.7135 37.7972C75.8282 38.2979 73.9356 38.6976 71.9797 38.3758C72.0886 38.5922 72.1297 38.7697 72.1356 39.015C72.29 45.3549 71.4474 51.2663 71.2386 57.4865C71.2033 58.5268 70.893 60.7719 72.5768 60.2409C73.3135 60.0086 73.9856 58.257 74.2532 57.5572C76.5649 51.49 76.9605 44.2021 77.7149 37.7972H77.7135ZM83.156 54.1001V50.0601H83.009V54.1001H83.156ZM53.1565 70.1144C51.7757 67.1205 50.6536 64.0025 50.1419 60.7373C48.4963 63.0718 48.3154 66.1913 49.3301 68.8072C48.0772 69.4493 46.8669 70.188 45.6684 70.921C43.2052 72.4259 37.6259 75.3029 36.4171 77.7154C36.0612 78.4267 35.9495 79.1568 35.8039 79.9259C35.9274 80.0341 38.6244 78.8452 38.8259 78.6374C39.1479 78.3041 39.3626 77.1426 39.9214 76.538C40.2891 76.1384 40.9273 75.8094 41.4097 75.5453C44.7567 73.7086 49.0801 71.8155 52.6139 70.2313C52.7859 70.1548 52.9668 70.1115 53.1565 70.1159V70.1144ZM67.5651 64.6344L67.271 64.708C67.921 69.9629 66.8975 75.6406 61.8343 78.4166C57.4388 80.8277 50.808 80.5146 45.8669 80.3703C45.6169 80.3631 45.4375 80.3198 45.2155 80.2173V80.503L59.8373 85.6959L74.4767 80.5045L66.9783 78.1959C69.9077 74.8225 70.493 70.53 68.5533 66.4798C68.2577 65.8609 67.7563 65.2996 67.5636 64.6359L67.5651 64.6344ZM88.303 82.5245H84.4795V82.6687H88.303V82.5245ZM79.3325 82.813L61.8328 89.1616V106.187L79.3325 98.9009V82.813ZM83.3031 82.813V89.1616L97.4219 85.1923L94.5279 83.2719L93.6588 82.9703L83.3045 82.813H83.3031ZM36.245 89.3059V82.9573L29.9143 85.7637L29.476 86.2023L36.245 89.3074V89.3059ZM57.7138 106.187L57.7947 89.3059L40.3626 82.9588L40.2317 99.1029L57.7138 106.189V106.187ZM83.156 89.0173V82.9573H83.009V89.0173H83.156ZM100.656 88.2959L83.2928 93.5566L83.3045 108.063L100.656 97.7466V88.2959ZM36.0774 93.2218L25.9526 89.3059C24.0379 92.7356 24.2394 96.5318 23.3056 100.208L36.2421 108.063L36.0759 93.2218H36.0774ZM16.6851 96.5202C16.6763 94.9388 17.0998 93.3993 17.5674 91.9045L14.1881 95.0081L14.3748 95.2534L16.6865 96.5202H16.6851ZM83.156 107.775V93.9231H83.009V107.775H83.156ZM36.5392 104.6V99.1174H36.3921V104.6H36.5392ZM61.8328 119.75C63.2284 119.593 64.6563 118.955 65.9019 118.332C69.7812 116.393 74.8282 113.413 78.4943 111.064C78.7884 110.877 79.0973 110.708 79.3325 110.444V103.302L61.8328 110.516V119.75ZM57.7153 119.75V110.588L40.2156 103.446V110.444L53.6153 118.362C54.9374 118.916 56.2462 119.635 57.7153 119.75Z" fill="#613DFF"/>
<path d="M83.1558 93.923H83.0088V107.774H83.1558V93.923Z" fill="#613DFF"/>
<path d="M83.1558 82.9573H83.0088V89.0173H83.1558V82.9573Z" fill="#613DFF"/>
<path d="M36.5391 99.1173H36.3921V104.6H36.5391V99.1173Z" fill="#613DFF"/>
<path d="M83.1558 50.0601H83.0088V54.1001H83.1558V50.0601Z" fill="#613DFF"/>
<path d="M88.303 82.5244H84.4795V82.6687H88.303V82.5244Z" fill="#613DFF"/>
</g>
<defs>
<clipPath id="clip0_2066_1771">
<rect width="119.663" height="124.672" fill="white"/>
</clipPath>
</defs>
</svg>
