<svg width="215" height="224" viewBox="0 0 215 224" fill="none" xmlns="http://www.w3.org/2000/svg">
<g clip-path="url(#clip0_2066_1992)">
<path d="M105.23 0.0649242C110.869 -0.300606 116.264 0.907458 121.316 3.31322L194.304 44.9888C202.666 50.3629 207.346 57.8239 208.823 67.5558C210.535 78.8328 210.852 92.0152 211.761 103.559C212.818 116.967 214.371 131.176 214.945 144.506C215.515 157.754 211.687 166.747 200.378 174.05C183.931 184.671 165.84 194.39 148.901 204.425C140.403 209.459 131.539 215.538 122.899 220.132C113.688 225.027 102.538 225.353 93.161 220.705C72.2507 208.039 50.989 195.927 30.0021 183.385C10.1937 171.54 -1.35268 167.861 0.12694 141.924C1.52201 117.46 4.30952 93.034 5.67553 68.5591C7.23178 56.2062 13.2903 49.1937 23.727 42.9771C46.3414 29.4992 69.7855 17.2837 92.4238 3.8317C96.358 1.72666 100.723 0.357867 105.23 0.0649242ZM187.984 171.346C194.404 167.727 201.964 164.115 204.83 156.896C207.697 149.676 205.945 140.213 205.42 132.851C204.014 113.159 202.468 93.3995 200.669 73.7387C199.58 61.824 198.188 57.3365 187.537 50.8477C164.645 36.9057 140.557 24.711 117.614 10.8312C111.218 7.70736 102.932 7.6581 96.6513 11.0905L24.3452 52.4006C16.0752 57.9768 14.6933 64.5693 13.8584 73.7387C12.3523 90.3042 11.343 106.922 10.1593 123.513C9.59125 131.467 8.11955 140.838 8.30187 148.675C8.43662 154.433 11.1766 160.973 16.0725 164.325L33.6986 148.667C33.9337 148.452 33.9337 148.242 33.902 147.949C33.7831 146.865 32.7368 144.719 32.4356 143.397C28.9321 127.993 36.0977 112.866 48.4974 103.572C59.9196 95.0094 76.5311 91.0119 83.7521 78.278C90.1912 66.9258 88.7881 52.9631 96.6117 42.1579C105.447 29.9503 123.388 25.9009 136.902 32.8615C140.892 34.9173 143.061 36.1539 147.36 37.896C155.295 41.1158 161.689 47.8768 161.031 56.8802C160.875 58.9982 158.93 62.371 158.933 63.0683C158.938 64.9608 160.257 68.8079 160.505 71.1463C161.047 76.2559 160.148 81.8763 160.65 86.6074C160.78 87.8207 161.882 90.2446 162.225 91.7508C164.302 100.832 163.758 111.596 160.439 120.335C158.803 124.641 155.95 127.676 159.448 132.325C162.484 136.356 172.799 138.741 177.592 140.965C181.621 142.834 182.935 144.88 179.529 148.525C181.653 149.45 187.984 153.256 187.984 155.659V171.343V171.346ZM126.093 39.4385C122.365 39.8999 122.436 46.4484 127.554 45.2999C130.907 44.5455 130.041 38.9511 126.093 39.4385ZM147.553 50.5366C148.969 48.1568 151.26 46.2591 153.11 44.1878V43.6667C149.226 42.3627 144.729 42.3264 141.082 44.3148L145.717 48.5871L147.009 50.3733L147.553 50.5366ZM117.519 63.9446C117.987 64.5019 118.758 64.6523 119.387 64.2505C120.161 63.7553 122.275 60.634 123.374 59.6075C124.172 58.8634 127.509 56.7739 127.42 55.8951C126.18 52.2398 121.773 56.9295 120.333 58.4409C119.321 59.5064 116.359 62.568 117.517 63.9446H117.519ZM131.639 61.6244C132.485 60.7766 132.083 58.3527 130.054 58.8971C127.734 59.5193 124.434 64.4268 122.495 65.9978C121.839 66.8895 122.275 68.4709 123.443 68.6446C124.806 68.8494 127.805 64.533 128.923 63.4935C129.414 63.0372 130.115 62.5239 130.664 62.0858C130.95 61.8577 131.452 61.811 131.639 61.6244ZM155.218 66.6122C152.483 67.4288 149.804 67.745 147.03 66.874C149.379 77.4614 150.047 88.5699 149.68 99.4191C149.635 100.752 148.05 107.191 150.927 105.828C153.384 104.664 155.593 92.6115 155.971 89.7805C156.727 84.1161 157.023 77.3577 156.241 71.7011C156.005 69.9927 155.369 68.3361 155.213 66.6147L155.218 66.6122ZM139.629 67.9109C136.242 68.8105 132.841 69.5286 129.327 68.9505C129.523 69.3394 129.597 69.6582 129.607 70.0989C129.885 81.49 128.371 92.1111 127.996 103.287C127.932 105.156 127.375 109.19 130.4 108.236C131.724 107.819 132.931 104.671 133.412 103.414C137.566 92.5129 138.276 79.4187 139.632 67.9109H139.629ZM149.408 97.2026V89.9439H149.144V97.2026H149.408ZM95.5072 125.976C93.0262 120.597 91.0102 114.994 90.0907 109.128C87.1341 113.322 86.8092 118.927 88.6323 123.627C86.3811 124.781 84.2066 126.108 82.0532 127.425C77.6276 130.129 67.6031 135.298 65.4312 139.633C64.7918 140.911 64.591 142.222 64.3294 143.604C64.5514 143.799 69.3971 141.663 69.7591 141.289C70.3378 140.69 70.7235 138.603 71.7276 137.517C72.3881 136.799 73.5348 136.208 74.4014 135.734C80.4151 132.434 88.1831 129.032 94.5323 126.186C94.8414 126.048 95.1664 125.971 95.5072 125.978V125.976ZM121.395 116.13L120.867 116.262C122.035 125.704 120.196 135.905 111.099 140.893C103.201 145.224 91.2877 144.662 82.4099 144.403C81.9607 144.39 81.6384 144.312 81.2394 144.128V144.641L107.511 153.971L133.814 144.644L120.341 140.496C125.604 134.435 126.656 126.722 123.171 119.446C122.64 118.333 121.739 117.325 121.393 116.132L121.395 116.13ZM158.655 148.273H151.786V148.532H158.655V148.273ZM142.538 148.792L111.096 160.198V190.789L142.538 177.697V148.792ZM149.672 148.792V160.198L175.04 153.067L169.84 149.616L168.278 149.074L149.675 148.792H149.672ZM65.1221 160.457V149.051L53.7475 154.093L52.9601 154.881L65.1221 160.46V160.457ZM103.695 190.789L103.841 160.457L72.5202 149.053L72.285 178.06L103.695 190.791V190.789ZM149.408 159.939V149.051H149.144V159.939H149.408ZM180.85 158.643L149.654 168.095L149.675 194.159L180.85 175.623V158.643ZM64.8209 167.493L46.6294 160.457C43.1893 166.62 43.5513 173.44 41.8735 180.046L65.1168 194.159L64.8182 167.493H64.8209ZM29.9784 173.42C29.9625 170.578 30.7235 167.812 31.5637 165.126L25.4919 170.703L25.8275 171.143L29.981 173.42H29.9784ZM149.408 193.64V168.753H149.144V193.64H149.408ZM65.6505 187.937V178.086H65.3863V187.937H65.6505ZM111.096 215.157C113.604 214.875 116.169 213.729 118.407 212.609C125.377 209.125 134.445 203.772 141.032 199.551C141.561 199.214 142.115 198.911 142.538 198.436V185.604L111.096 198.566V215.157ZM103.698 215.157V198.696L72.256 185.863V198.436L96.3316 212.664C98.7069 213.659 101.058 214.95 103.698 215.157Z" fill="#613DFF"/>
<path d="M149.408 168.753H149.144V193.64H149.408V168.753Z" fill="#613DFF"/>
<path d="M149.408 149.051H149.144V159.939H149.408V149.051Z" fill="#613DFF"/>
<path d="M65.6504 178.086H65.3862V187.937H65.6504V178.086Z" fill="#613DFF"/>
<path d="M149.408 89.9438H149.144V97.2025H149.408V89.9438Z" fill="#613DFF"/>
<path d="M158.655 148.273H151.786V148.532H158.655V148.273Z" fill="#613DFF"/>
</g>
<defs>
<clipPath id="clip0_2066_1992">
<rect width="215" height="224" fill="white"/>
</clipPath>
</defs>
</svg>
